<svg width="128" height="32" viewBox="0 0 128 32" fill="none" xmlns="http://www.w3.org/2000/svg">
<g clip-path="url(#clip0_206_20023)">
<path d="M42.7493 5.35645H45.3499V19.9196H55.901V22.3306H42.7493V5.35645Z" fill="url(#paint0_linear_206_20023)"/>
<path d="M74.0806 22.3309L67.6905 9.64297L62.5635 19.8956H69.9939L71.6285 22.3066H58.4273L67.6905 3.94434L77.1022 22.3066H74.0806V22.3309Z" fill="url(#paint1_linear_206_20023)"/>
<path d="M79.678 22.3306V5.35645H90.4273C91.0465 5.35645 91.6161 5.47821 92.1362 5.7461C92.6811 6.01398 93.1517 6.37928 93.548 6.84199C93.9443 7.3047 94.2663 7.86482 94.5139 8.498C94.7616 9.13118 94.8855 9.81307 94.8855 10.5437C94.8855 11.2986 94.7369 11.9318 94.4149 12.4919C94.0929 13.052 93.7709 13.5147 93.4242 13.9044C93.7709 14.294 94.1177 14.7811 94.4149 15.3169C94.7369 15.8526 94.8855 16.4858 94.8855 17.1677C94.8855 17.8983 94.7616 18.5802 94.5139 19.2134C94.2663 19.8466 93.9443 20.4067 93.548 20.8694C93.1517 21.3321 92.6811 21.6974 92.1362 21.9653C91.5913 22.2332 91.0217 22.3549 90.4273 22.3549H79.678V22.3306ZM81.9567 12.6137H90.8731C91.2198 12.3458 91.517 12.0049 91.7647 11.6152C92.0124 11.2255 92.1362 10.8359 92.1362 10.495C92.1362 10.1784 92.0867 9.86177 91.9876 9.54518C91.8886 9.22859 91.74 8.93636 91.5666 8.66847C91.3932 8.40059 91.1703 8.18141 90.9226 8.01094C90.6749 7.84046 90.3777 7.74305 90.0557 7.74305H82.2787V19.8709H90.1053C90.4273 19.8709 90.7245 19.7735 90.9721 19.603C91.2198 19.4326 91.418 19.2134 91.5913 18.9455C91.7647 18.6776 91.8886 18.3854 91.9876 18.0688C92.0867 17.7522 92.1362 17.4356 92.1362 17.119C92.1362 16.7537 92.0124 16.3884 91.7647 15.9988C91.517 15.6091 91.2198 15.2682 90.8483 14.9759H81.9567V12.6137V12.6137Z" fill="url(#paint2_linear_206_20023)"/>
<path d="M114.848 5.35645H117.449V19.9196H128V22.3306H114.848V5.35645V5.35645Z" fill="url(#paint3_linear_206_20023)"/>
<path d="M98.155 5.35645H111.307V7.7674H100.756V19.8953H111.307V22.3062H98.155V5.35645ZM111.109 15.5117H100.013V13.1007H111.109V15.5117Z" fill="url(#paint4_linear_206_20023)"/>
<path d="M16.743 25.3516C16.5944 25.3516 16.4706 25.3516 16.322 25.3516C16.4706 25.3759 16.6192 25.3759 16.743 25.3516Z" fill="url(#paint5_linear_206_20023)"/>
<path d="M19.5914 24.7911C19.6159 24.7911 19.6159 24.7669 19.5914 24.7911C19.6159 24.7669 19.6159 24.7669 19.5914 24.7911C19.6159 24.7911 19.6159 24.7669 19.5914 24.7911Z" fill="url(#paint6_linear_206_20023)"/>
<path d="M23.4551 1.63025C23.3065 1.5572 23.1579 1.48414 22.9845 1.41108C22.8855 1.36237 22.8112 1.33802 22.7121 1.28931C22.5635 1.21625 22.3901 1.16755 22.2415 1.09449C22.1424 1.07013 22.0681 1.02143 21.9691 0.997074C21.7957 0.948368 21.6471 0.875308 21.4737 0.826602C21.3746 0.802249 21.2756 0.753543 21.2012 0.72919C21.0279 0.680483 20.8545 0.631777 20.6811 0.583071C20.5821 0.558718 20.5078 0.534365 20.4087 0.510012C20.2353 0.461305 20.0372 0.412599 19.8638 0.388246C19.7895 0.363893 19.6904 0.33954 19.6161 0.33954C19.3932 0.290834 19.1455 0.242127 18.9226 0.217774C18.8731 0.217774 18.8483 0.193421 18.7988 0.193421C18.5263 0.144715 18.2539 0.120362 17.9567 0.0960086C17.8824 0.0960086 17.7833 0.0960086 17.709 0.0716555C17.5108 0.0473023 17.3127 0.0473023 17.1146 0.0229492C17.0155 0.0229492 16.8917 0.0229492 16.7926 0.0229492C16.644 0.0229492 16.4706 0.0229492 16.322 0.0229492C16.2972 0.0229492 16.2972 0.0229492 16.2725 0.0229492C16.2477 0.0229492 16.2477 0.0229492 16.2229 0.0229492C16.0991 0.0229492 15.9752 0.0229492 15.8266 0.0229492C15.7028 0.0229492 15.5542 0.0229492 15.4304 0.0229492H15.4056C15.1579 0.0473023 14.935 0.0473023 14.7121 0.0716555C14.6625 0.0716555 14.6378 0.0716555 14.5882 0.0716555C8.5449 0.704837 3.51704 4.55263 1.26317 9.8129C0.990721 10.8601 0.866882 11.9316 0.866882 13.0519C0.866882 14.5131 1.13933 15.9255 1.58515 17.2163C3.19506 21.7703 7.30651 25.1797 12.2848 25.8373C12.904 25.9103 13.5232 25.959 14.1672 25.959C16.0991 25.959 17.9319 25.5207 19.5913 24.7901C19.6161 24.7657 19.6656 24.7657 19.6904 24.7414C18.6254 25.1554 17.4613 25.3745 16.2477 25.3745C12.3344 25.3745 8.96595 23.0366 7.50465 19.7003C7.50465 19.7246 7.52942 19.7733 7.52942 19.7977C7.0093 18.6287 6.71208 17.3624 6.71208 16.0229C6.71208 15.9986 6.71208 15.9742 6.71208 15.9499C6.71208 15.7551 6.68732 15.5602 6.68732 15.3411C6.68732 14.6592 6.73685 13.9773 6.83592 13.3198C6.91023 12.9057 6.98453 12.5161 7.0836 12.1021C7.52942 10.373 8.29722 8.79007 9.36224 7.40194C11.8143 4.28474 15.6037 2.26344 19.8638 2.23908C20.5078 2.23908 21.1269 2.28779 21.7461 2.36085C22.4149 2.45826 23.0836 2.60438 23.7276 2.77485V1.75202C23.6285 1.72767 23.5294 1.67896 23.4551 1.63025ZM16.743 25.3502C16.5944 25.3502 16.4706 25.3502 16.322 25.3502C16.4706 25.3745 16.6192 25.3745 16.743 25.3502Z" fill="url(#paint7_linear_206_20023)"/>
<path d="M27.9878 4.89234C27.8639 4.77058 27.7401 4.64881 27.6163 4.52704C27.542 4.45399 27.4924 4.40528 27.4181 4.33222C27.2943 4.21045 27.1704 4.08869 27.0218 3.99128C26.9475 3.94257 26.8732 3.86951 26.7989 3.8208C26.6751 3.69904 26.5265 3.60163 26.4026 3.50421C26.3283 3.45551 26.254 3.38245 26.1797 3.33374C26.0559 3.23633 25.9073 3.13892 25.7834 3.0415V3.60163C26.6008 3.99128 27.3686 4.47834 28.0869 5.03846C28.0621 4.9654 28.0373 4.94105 27.9878 4.89234Z" fill="url(#paint8_linear_206_20023)"/>
<path d="M32.5448 15.9514C32.5448 15.9271 32.5448 15.9271 32.5448 15.9027C32.5448 15.7566 32.5448 15.6105 32.52 15.4643C32.52 15.3669 32.52 15.2452 32.52 15.1477C32.52 14.9773 32.4952 14.8068 32.4705 14.6363C32.4705 14.5389 32.4457 14.4415 32.4457 14.3441C32.4209 14.0762 32.3962 13.8327 32.3466 13.5648C32.3219 13.4674 32.3219 13.3943 32.2971 13.2969C32.2723 13.1264 32.2476 12.956 32.198 12.7855C32.1733 12.6637 32.1485 12.5663 32.1237 12.4446C32.0989 12.2984 32.0742 12.1767 32.0246 12.0306C31.9999 11.9088 31.9503 11.787 31.9256 11.6653C31.9008 11.5435 31.8513 11.4217 31.8265 11.2756C31.777 11.1538 31.7522 11.0321 31.7027 10.9103C31.6531 10.7885 31.6284 10.6668 31.5788 10.545C31.5293 10.4232 31.4798 10.3015 31.4302 10.1797C31.3807 10.0579 31.3311 9.96054 31.2816 9.83877C31.2321 9.717 31.1825 9.59524 31.1082 9.47347C31.0587 9.37606 31.0092 9.25429 30.9596 9.15688C30.9101 9.03512 30.8358 8.91335 30.7863 8.79158C30.7367 8.69417 30.6872 8.59676 30.6376 8.47499C30.5633 8.35323 30.5138 8.23146 30.4395 8.1097C30.39 8.01228 30.3157 7.91487 30.2661 7.81746C30.1918 7.69569 30.1175 7.57393 30.0432 7.45216C29.9937 7.35475 29.9194 7.25734 29.8698 7.18428C29.7955 7.06251 29.6965 6.94075 29.6222 6.84334C29.5479 6.74592 29.4983 6.67286 29.424 6.57545C29.3497 6.45369 29.2507 6.33192 29.1516 6.23451C29.0773 6.16145 29.0277 6.06404 28.9534 5.99098C28.8544 5.86921 28.7553 5.7718 28.681 5.65003C28.6067 5.57697 28.5572 5.50391 28.4828 5.43085C28.3838 5.30909 28.2847 5.21168 28.1856 5.08991C28.1609 5.06556 28.1113 5.01685 28.0866 4.9925C27.3683 4.43238 26.6005 3.96967 25.7832 3.55566V12.3471C26.328 13.1995 26.7986 14.1006 27.1206 15.0747C27.5912 16.3898 27.8389 17.7779 27.8389 19.2391C27.8389 19.58 27.8389 19.8966 27.8141 20.2132C27.8141 20.335 27.7893 20.4324 27.7893 20.5541C27.7646 20.8951 27.715 21.236 27.6655 21.5526C27.294 23.6226 26.4271 25.5465 25.1887 27.1538C23.4302 29.4187 20.9534 31.1234 18.0556 31.8783C18.2785 31.854 18.4767 31.8296 18.6996 31.8053C18.7739 31.8053 18.8234 31.7809 18.8977 31.7809C19.0711 31.7566 19.2692 31.7322 19.4426 31.6835C19.5169 31.6592 19.5912 31.6592 19.6655 31.6348C19.8884 31.5861 20.1113 31.5374 20.3342 31.4887C20.359 31.4887 20.359 31.4887 20.3838 31.4643C20.6067 31.4156 20.8296 31.3426 21.0525 31.2695C21.1268 31.2452 21.2011 31.2208 21.2507 31.1965C21.424 31.1478 21.5974 31.0747 21.7708 31.026C21.8203 31.0016 21.8946 30.9773 21.9441 30.9773C22.1671 30.9042 22.39 30.8068 22.5881 30.7337C22.6376 30.7094 22.6872 30.685 22.7367 30.6607C22.9101 30.5876 23.0835 30.5146 23.2568 30.4415C23.3311 30.4172 23.3807 30.3928 23.455 30.3441C23.6531 30.2467 23.8265 30.1493 23.9999 30.0762C24.0246 30.0519 24.0494 30.0519 24.0742 30.0275C24.2723 29.9301 24.4705 29.8083 24.6686 29.6866C24.7181 29.6622 24.7924 29.6135 24.842 29.5892C24.9906 29.4917 25.1392 29.3943 25.2878 29.2969C25.3373 29.2726 25.3869 29.2239 25.4364 29.1995C25.6346 29.0777 25.8079 28.9316 26.0061 28.8099C26.0308 28.7855 26.0804 28.7611 26.1051 28.7368C26.2537 28.615 26.4024 28.4933 26.551 28.3958C26.6005 28.3471 26.65 28.2984 26.7243 28.2741C26.8729 28.1523 27.0215 28.0306 27.1454 27.9088C27.1702 27.8844 27.2197 27.8601 27.2445 27.8114C27.4178 27.6653 27.5664 27.4948 27.7398 27.3487C27.7894 27.3 27.8389 27.2513 27.8884 27.2025C28.0123 27.0808 28.1361 26.959 28.2352 26.8372C28.2847 26.7885 28.3342 26.7398 28.3838 26.6911C28.5324 26.5207 28.681 26.3502 28.8296 26.1797C28.8544 26.1554 28.8791 26.131 28.9039 26.1067C29.0277 25.9605 29.1516 25.8144 29.2754 25.6439C29.325 25.5952 29.3745 25.5222 29.3993 25.4735C29.4983 25.3274 29.5974 25.2056 29.6965 25.0595C29.7212 25.0108 29.7708 24.9621 29.7955 24.9134C29.9194 24.7185 30.0432 24.5481 30.1671 24.3532C30.1918 24.3045 30.2414 24.2315 30.2661 24.1828C30.3652 24.0366 30.4395 23.8905 30.5138 23.7444C30.5633 23.6713 30.5881 23.6226 30.6129 23.5496C30.712 23.3548 30.811 23.1843 30.9101 22.9895C30.9349 22.9651 30.9349 22.9164 30.9596 22.892C31.0587 22.6972 31.133 22.5024 31.2321 22.3076C31.2568 22.2345 31.2816 22.1614 31.3311 22.0884C31.4054 21.9423 31.455 21.7718 31.5293 21.6013C31.5541 21.5283 31.5788 21.4796 31.6036 21.4065C31.6779 21.236 31.7274 21.0656 31.777 20.8707C31.8017 20.822 31.8265 20.749 31.8265 20.7003C31.9008 20.4567 31.9751 20.2376 32.0246 19.994C32.0494 19.921 32.0742 19.8479 32.0742 19.7505C32.1237 19.58 32.1485 19.4339 32.198 19.2634C32.2228 19.166 32.2476 19.0686 32.2476 18.9712C32.2723 18.8251 32.2971 18.6546 32.3219 18.5085C32.3466 18.4111 32.3466 18.3137 32.3714 18.2162C32.3962 18.0701 32.4209 17.8997 32.4209 17.7535C32.4209 17.6561 32.4457 17.5587 32.4457 17.4613C32.4705 17.2908 32.4705 17.1447 32.4952 16.9742C32.4952 16.8768 32.52 16.7794 32.52 16.682C32.52 16.5115 32.52 16.3167 32.5448 16.1462C32.5448 16.0732 32.5448 16.0245 32.5448 15.9514C32.5448 15.9758 32.5448 15.9758 32.5448 15.9514Z" fill="url(#paint9_linear_206_20023)"/>
<path d="M23.7277 10.1798V9.91196L23.7029 2.77649C23.059 2.58167 22.415 2.4599 21.7215 2.36249C21.1023 2.28943 20.4831 2.24072 19.8392 2.24072C15.6039 2.26508 11.8144 4.28639 9.41192 7.40358C8.34691 8.76736 7.55434 10.3747 7.13328 12.1037C7.03421 12.4934 6.95991 12.9074 6.88561 13.3214C6.78653 13.9789 6.737 14.6608 6.737 15.3427C6.737 15.5375 6.737 15.7324 6.76177 15.9515C6.76177 15.9515 6.76177 15.9515 6.76177 15.9759C6.76177 16.0002 6.76177 16.0489 6.76177 16.0733C6.76177 16.0489 6.76177 16.0489 6.76177 16.0246C6.76177 10.8617 11.0218 6.67299 16.2726 6.67299C16.9661 6.67299 17.6596 6.74605 18.3036 6.89217C18.2788 6.89217 18.2788 6.89217 18.254 6.89217C19.7896 7.20876 21.2014 7.89065 22.3655 8.86477C22.3407 8.84042 22.3159 8.84042 22.2912 8.81607C22.8361 9.18136 23.3067 9.66842 23.7277 10.1798Z" fill="url(#paint10_linear_206_20023)"/>
<path d="M20.706 10.6664C19.8886 9.98456 18.8732 9.4975 17.7834 9.25397C17.288 9.15656 16.7927 9.0835 16.2725 9.0835C12.4088 9.0835 9.26324 12.1763 9.26324 15.9754V15.9998C9.26324 16.9496 9.46139 17.8506 9.8329 18.6786C10.8979 21.187 13.3747 22.8917 16.2725 22.8917C17.1642 22.8917 18.031 22.7212 18.7988 22.429C19.8886 22.015 20.8546 21.3331 21.5976 20.4808C22.6379 19.2631 23.2818 17.7045 23.2818 15.9998C23.2818 13.8567 22.2911 11.9328 20.706 10.6664Z" fill="url(#paint11_linear_206_20023)"/>
<path d="M27.8639 19.264C27.8639 17.8028 27.5914 16.3903 27.1456 15.0996C26.7989 14.1254 26.3531 13.2244 25.8082 12.372V15.8058V16.2442C25.8082 16.3172 25.8082 16.3659 25.8082 16.439C25.7091 18.5821 24.867 20.5547 23.5295 22.0889C23.5543 22.0646 23.5543 22.0646 23.5791 22.0402C22.5388 23.2579 21.1766 24.2076 19.641 24.7678C17.9815 25.5227 16.1487 25.9367 14.2168 25.9367C13.5729 25.9367 12.9537 25.888 12.3345 25.8149C7.35615 25.1574 3.24469 21.748 1.63479 17.1939C1.1642 15.8789 0.91652 14.4907 0.91652 13.0296C0.91652 11.9093 0.966055 10.8134 1.3128 9.81494C1.28804 9.86365 1.28804 9.91235 1.26327 9.96106C1.18897 10.1559 1.11466 10.3507 1.04036 10.5455C1.01559 10.6186 0.990823 10.6673 0.966055 10.7404C0.891752 10.9108 0.842216 11.1057 0.792681 11.2761C0.767913 11.3492 0.743145 11.4466 0.718377 11.5197C0.668842 11.6901 0.619306 11.8606 0.56977 12.0311C0.545003 12.1285 0.520235 12.2259 0.495467 12.3477C0.470699 12.4938 0.421164 12.6643 0.396396 12.8104C0.371628 12.9321 0.34686 13.0539 0.322092 13.1513C0.297325 13.2974 0.272557 13.4436 0.247789 13.5897C0.223021 13.7114 0.223021 13.8576 0.198253 13.9793C0.173486 14.1254 0.148718 14.2472 0.148718 14.3933C0.12395 14.5151 0.12395 14.6612 0.12395 14.8073C0.12395 14.9534 0.0991821 15.0752 0.0991821 15.2213C0.0991821 15.3675 0.0991821 15.4892 0.0991821 15.6353C0.0991821 15.7815 0.0991821 15.9276 0.0991821 16.0493C0.0991821 16.0737 0.0991821 16.0737 0.0991821 16.098C0.0991821 16.3172 0.0991821 16.5364 0.12395 16.7556C0.12395 16.8286 0.12395 16.8773 0.12395 16.9504C0.12395 17.1452 0.148718 17.3157 0.173486 17.5105C0.173486 17.5836 0.198253 17.6566 0.198253 17.7054C0.223021 17.9489 0.247789 18.1681 0.297325 18.4116C0.297325 18.4603 0.322092 18.4847 0.322092 18.5334C0.34686 18.7282 0.396396 18.923 0.421164 19.1178C0.445931 19.1909 0.445931 19.264 0.470699 19.337C0.520235 19.5075 0.545003 19.7023 0.594538 19.8728C0.619306 19.9215 0.619306 19.9702 0.644074 20.0189C0.693609 20.2381 0.767913 20.4573 0.817448 20.6521C0.842216 20.7251 0.866984 20.7982 0.891752 20.8713C0.941287 21.0174 0.990823 21.1635 1.04036 21.334C0.966055 21.4314 0.990823 21.5044 1.01559 21.5775C1.08989 21.7723 1.1642 21.9671 1.26327 22.1863C1.28804 22.2594 1.33757 22.3324 1.36234 22.4055C1.43664 22.5516 1.48618 22.6734 1.56048 22.8195C1.61002 22.8926 1.63479 22.99 1.68432 23.063C1.75862 23.2092 1.83293 23.3796 1.932 23.5257C1.98154 23.5988 2.03107 23.6962 2.08061 23.7693C2.15491 23.9154 2.25398 24.0615 2.32828 24.2076C2.37782 24.2807 2.42736 24.3781 2.47689 24.4512C2.52643 24.5242 2.57596 24.6216 2.6255 24.6947C2.77411 24.9139 2.89794 25.1087 3.04655 25.3035C3.09609 25.3522 3.12085 25.4009 3.17039 25.474C3.54191 25.9854 3.93819 26.4481 4.35924 26.9108C4.40878 26.9595 4.45832 27.0082 4.50785 27.0569C4.68123 27.2274 4.8546 27.3979 5.02797 27.5684C5.07751 27.6171 5.12705 27.6658 5.20135 27.7145C5.39949 27.9093 5.6224 28.0798 5.82054 28.2746C5.84531 28.299 5.87008 28.3233 5.89485 28.3233C6.14253 28.5181 6.3902 28.713 6.63788 28.9078C6.68742 28.9321 6.73695 28.9808 6.76172 29.0052C6.95986 29.1513 7.18277 29.2974 7.40568 29.4436C7.47999 29.4923 7.55429 29.541 7.62859 29.5653C7.82674 29.6871 8.04965 29.8089 8.27256 29.9306C8.32209 29.955 8.3964 30.0037 8.44593 30.028C8.71838 30.1741 8.99082 30.3203 9.28804 30.4664C9.3128 30.4664 9.33757 30.4907 9.36234 30.4907C9.61002 30.6125 9.88246 30.7343 10.1549 30.8317C10.2292 30.856 10.3283 30.9047 10.4026 30.9291C10.6255 31.0022 10.8236 31.0996 11.0466 31.1726C11.1456 31.197 11.2199 31.2213 11.319 31.27C11.5914 31.3431 11.8639 31.4405 12.1363 31.5136C12.1611 31.5136 12.2106 31.5379 12.2354 31.5379C12.5326 31.611 12.8546 31.684 13.1518 31.7327C13.2509 31.7571 13.3252 31.7571 13.4243 31.7815C13.6472 31.8302 13.8701 31.8545 14.1178 31.8789C14.2168 31.9032 14.3407 31.9032 14.4397 31.9276C14.6874 31.9519 14.9103 31.9763 15.158 32.0006C15.2323 32.0006 15.3314 32.025 15.4057 32.025C15.7277 32.0493 16.0496 32.0493 16.3716 32.0493C16.9413 32.0493 17.5109 32.025 18.0806 31.9519C20.9784 31.197 23.4552 29.5166 25.2137 27.2274C26.4521 25.6201 27.319 23.6962 27.6905 21.6262C27.7401 21.2853 27.7896 20.9687 27.8144 20.6277C27.8144 20.506 27.8391 20.4085 27.8391 20.2868C27.8391 19.9215 27.8639 19.6049 27.8639 19.264Z" fill="url(#paint12_linear_206_20023)"/>
<g clip-path="url(#clip1_206_20023)">
<path d="M42.7492 5.35645H45.3498V19.9196H55.9009V22.3306H42.7492V5.35645Z" fill="url(#paint13_linear_206_20023)"/>
<path d="M74.0805 22.3309L67.6904 9.64297L62.5635 19.8956H69.9938L71.6285 22.3066H58.4272L67.6904 3.94434L77.1022 22.3066H74.0805V22.3309Z" fill="url(#paint14_linear_206_20023)"/>
<path d="M79.678 22.3306V5.35645H90.4272C91.0464 5.35645 91.6161 5.47821 92.1362 5.7461C92.6811 6.01398 93.1517 6.37928 93.5479 6.84199C93.9442 7.3047 94.2662 7.86482 94.5139 8.498C94.7616 9.13118 94.8854 9.81307 94.8854 10.5437C94.8854 11.2986 94.7368 11.9318 94.4148 12.4919C94.0928 13.052 93.7709 13.5147 93.4241 13.9044C93.7709 14.294 94.1176 14.7811 94.4148 15.3169C94.7368 15.8526 94.8854 16.4858 94.8854 17.1677C94.8854 17.8983 94.7616 18.5802 94.5139 19.2134C94.2662 19.8466 93.9442 20.4067 93.5479 20.8694C93.1517 21.3321 92.6811 21.6974 92.1362 21.9653C91.5913 22.2332 91.0216 22.3549 90.4272 22.3549H79.678V22.3306ZM81.9566 12.6137H90.873C91.2198 12.3458 91.517 12.0048 91.7647 11.6152C92.0123 11.2255 92.1362 10.8359 92.1362 10.495C92.1362 10.1784 92.0866 9.86177 91.9876 9.54518C91.8885 9.22859 91.7399 8.93635 91.5665 8.66847C91.3931 8.40059 91.1702 8.18141 90.9226 8.01094C90.6749 7.84046 90.3777 7.74305 90.0557 7.74305H82.2786V19.8709H90.1052C90.4272 19.8709 90.7244 19.7735 90.9721 19.603C91.2198 19.4326 91.4179 19.2134 91.5913 18.9455C91.7647 18.6776 91.8885 18.3854 91.9876 18.0688C92.0866 17.7522 92.1362 17.4356 92.1362 17.119C92.1362 16.7537 92.0123 16.3884 91.7647 15.9988C91.517 15.6091 91.2198 15.2682 90.8483 14.9759H81.9566V12.6137V12.6137Z" fill="url(#paint15_linear_206_20023)"/>
<path d="M114.848 5.35645H117.449V19.9196H128V22.3306H114.848V5.35645V5.35645Z" fill="url(#paint16_linear_206_20023)"/>
<path d="M98.155 5.35645H111.307V7.7674H100.756V19.8953H111.307V22.3062H98.155V5.35645ZM111.109 15.5117H100.013V13.1007H111.109V15.5117Z" fill="url(#paint17_linear_206_20023)"/>
<path d="M16.743 25.3496C16.5944 25.3496 16.4706 25.3496 16.322 25.3496C16.4706 25.374 16.6192 25.374 16.743 25.3496Z" fill="url(#paint18_linear_206_20023)"/>
<path d="M19.5912 24.7911C19.6158 24.7911 19.6158 24.7669 19.5912 24.7911C19.6158 24.7669 19.6158 24.7669 19.5912 24.7911C19.6158 24.7911 19.6158 24.7669 19.5912 24.7911Z" fill="url(#paint19_linear_206_20023)"/>
<path d="M23.4551 1.63025C23.3065 1.5572 23.1579 1.48414 22.9845 1.41108C22.8855 1.36237 22.8112 1.33802 22.7121 1.28931C22.5635 1.21625 22.3901 1.16755 22.2415 1.09449C22.1424 1.07013 22.0681 1.02143 21.9691 0.997074C21.7957 0.948368 21.6471 0.875308 21.4737 0.826602C21.3746 0.802249 21.2756 0.753543 21.2012 0.72919C21.0279 0.680483 20.8545 0.631777 20.6811 0.583071C20.5821 0.558718 20.5078 0.534365 20.4087 0.510012C20.2353 0.461305 20.0372 0.412599 19.8638 0.388246C19.7895 0.363893 19.6904 0.33954 19.6161 0.33954C19.3932 0.290834 19.1455 0.242127 18.9226 0.217774C18.8731 0.217774 18.8483 0.193421 18.7988 0.193421C18.5263 0.144715 18.2539 0.120362 17.9567 0.0960086C17.8824 0.0960086 17.7833 0.0960086 17.709 0.0716555C17.5108 0.0473023 17.3127 0.0473023 17.1146 0.0229492C17.0155 0.0229492 16.8917 0.0229492 16.7926 0.0229492C16.644 0.0229492 16.4706 0.0229492 16.322 0.0229492C16.2972 0.0229492 16.2972 0.0229492 16.2725 0.0229492C16.2477 0.0229492 16.2477 0.0229492 16.2229 0.0229492C16.0991 0.0229492 15.9752 0.0229492 15.8266 0.0229492C15.7028 0.0229492 15.5542 0.0229492 15.4304 0.0229492H15.4056C15.1579 0.0473023 14.935 0.0473023 14.7121 0.0716555C14.6625 0.0716555 14.6378 0.0716555 14.5882 0.0716555C8.5449 0.704837 3.51704 4.55263 1.26317 9.8129C0.990721 10.8601 0.866882 11.9316 0.866882 13.0519C0.866882 14.5131 1.13933 15.9255 1.58515 17.2163C3.19506 21.7703 7.30651 25.1797 12.2848 25.8373C12.904 25.9103 13.5232 25.959 14.1672 25.959C16.0991 25.959 17.9319 25.5207 19.5913 24.7901C19.6161 24.7657 19.6656 24.7657 19.6904 24.7414C18.6254 25.1554 17.4613 25.3745 16.2477 25.3745C12.3344 25.3745 8.96595 23.0366 7.50465 19.7003C7.50465 19.7246 7.52942 19.7733 7.52942 19.7977C7.0093 18.6287 6.71208 17.3624 6.71208 16.0229C6.71208 15.9986 6.71208 15.9742 6.71208 15.9499C6.71208 15.7551 6.68732 15.5602 6.68732 15.3411C6.68732 14.6592 6.73685 13.9773 6.83592 13.3198C6.91023 12.9057 6.98453 12.5161 7.0836 12.1021C7.52942 10.373 8.29722 8.79007 9.36224 7.40194C11.8143 4.28474 15.6037 2.26344 19.8638 2.23908C20.5078 2.23908 21.1269 2.28779 21.7461 2.36085C22.4149 2.45826 23.0836 2.60438 23.7276 2.77485V1.75202C23.6285 1.72767 23.5294 1.67896 23.4551 1.63025ZM16.743 25.3502C16.5944 25.3502 16.4706 25.3502 16.322 25.3502C16.4706 25.3745 16.6192 25.3745 16.743 25.3502Z" fill="url(#paint20_linear_206_20023)"/>
<path d="M27.9878 4.89234C27.8639 4.77058 27.7401 4.64881 27.6163 4.52704C27.542 4.45399 27.4924 4.40528 27.4181 4.33222C27.2943 4.21045 27.1704 4.08869 27.0218 3.99128C26.9475 3.94257 26.8732 3.86951 26.7989 3.8208C26.6751 3.69904 26.5265 3.60163 26.4026 3.50421C26.3283 3.45551 26.254 3.38245 26.1797 3.33374C26.0559 3.23633 25.9073 3.13892 25.7834 3.0415V3.60163C26.6008 3.99128 27.3686 4.47834 28.0868 5.03846C28.0621 4.9654 28.0373 4.94105 27.9878 4.89234Z" fill="url(#paint21_linear_206_20023)"/>
<path d="M32.5448 15.949C32.5448 15.9246 32.5448 15.9246 32.5448 15.9003C32.5448 15.7541 32.5448 15.608 32.52 15.4619C32.52 15.3645 32.52 15.2427 32.52 15.1453C32.52 14.9748 32.4952 14.8044 32.4705 14.6339C32.4705 14.5365 32.4457 14.4391 32.4457 14.3417C32.4209 14.0738 32.3962 13.8302 32.3466 13.5624C32.3219 13.4649 32.3219 13.3919 32.2971 13.2945C32.2723 13.124 32.2476 12.9535 32.198 12.7831C32.1733 12.6613 32.1485 12.5639 32.1237 12.4421C32.0989 12.296 32.0742 12.1742 32.0246 12.0281C31.9999 11.9063 31.9503 11.7846 31.9256 11.6628C31.9008 11.541 31.8513 11.4193 31.8265 11.2732C31.777 11.1514 31.7522 11.0296 31.7027 10.9079C31.6531 10.7861 31.6284 10.6643 31.5788 10.5426C31.5293 10.4208 31.4798 10.299 31.4302 10.1773C31.3807 10.0555 31.3311 9.95809 31.2816 9.83633C31.2321 9.71456 31.1825 9.5928 31.1082 9.47103C31.0587 9.37362 31.0092 9.25185 30.9596 9.15444C30.9101 9.03267 30.8358 8.91091 30.7863 8.78914C30.7367 8.69173 30.6872 8.59432 30.6376 8.47255C30.5633 8.35079 30.5138 8.22902 30.4395 8.10726C30.39 8.00984 30.3157 7.91243 30.2661 7.81502C30.1918 7.69325 30.1175 7.57149 30.0432 7.44972C29.9937 7.35231 29.9194 7.2549 29.8698 7.18184C29.7955 7.06007 29.6965 6.93831 29.6222 6.84089C29.5479 6.74348 29.4983 6.67042 29.424 6.57301C29.3497 6.45124 29.2507 6.32948 29.1516 6.23207C29.0773 6.15901 29.0277 6.06159 28.9534 5.98853C28.8544 5.86677 28.7553 5.76936 28.681 5.64759C28.6067 5.57453 28.5572 5.50147 28.4828 5.42841C28.3838 5.30665 28.2847 5.20923 28.1856 5.08747C28.1609 5.06312 28.1113 5.01441 28.0866 4.99006C27.3683 4.42993 26.6005 3.96723 25.7832 3.55322V12.3447C26.328 13.1971 26.7986 14.0981 27.1206 15.0722C27.5912 16.3873 27.8389 17.7754 27.8389 19.2366C27.8389 19.5776 27.8389 19.8942 27.8141 20.2108C27.8141 20.3325 27.7893 20.4299 27.7893 20.5517C27.7646 20.8926 27.715 21.2336 27.6655 21.5502C27.294 23.6202 26.4271 25.5441 25.1887 27.1514C23.4302 29.4162 20.9534 31.121 18.0556 31.8759C18.2785 31.8515 18.4767 31.8272 18.6996 31.8028C18.7739 31.8028 18.8234 31.7785 18.8977 31.7785C19.0711 31.7541 19.2692 31.7298 19.4426 31.6811C19.5169 31.6567 19.5912 31.6567 19.6655 31.6324C19.8884 31.5837 20.1113 31.535 20.3342 31.4863C20.359 31.4863 20.359 31.4863 20.3838 31.4619C20.6067 31.4132 20.8296 31.3401 21.0525 31.2671C21.1268 31.2427 21.2011 31.2184 21.2507 31.194C21.424 31.1453 21.5974 31.0722 21.7708 31.0235C21.8203 30.9992 21.8946 30.9748 21.9441 30.9748C22.1671 30.9018 22.39 30.8044 22.5881 30.7313C22.6376 30.707 22.6872 30.6826 22.7367 30.6582C22.9101 30.5852 23.0835 30.5121 23.2568 30.4391C23.3311 30.4147 23.3807 30.3904 23.455 30.3417C23.6531 30.2442 23.8265 30.1468 23.9999 30.0738C24.0246 30.0494 24.0494 30.0494 24.0742 30.0251C24.2723 29.9277 24.4705 29.8059 24.6686 29.6841C24.7181 29.6598 24.7924 29.6111 24.842 29.5867C24.9906 29.4893 25.1392 29.3919 25.2878 29.2945C25.3373 29.2701 25.3869 29.2214 25.4364 29.1971C25.6346 29.0753 25.8079 28.9292 26.0061 28.8074C26.0308 28.7831 26.0804 28.7587 26.1051 28.7343C26.2537 28.6126 26.4024 28.4908 26.551 28.3934C26.6005 28.3447 26.65 28.296 26.7243 28.2716C26.8729 28.1499 27.0215 28.0281 27.1454 27.9063C27.1702 27.882 27.2197 27.8576 27.2445 27.8089C27.4178 27.6628 27.5664 27.4923 27.7398 27.3462C27.7894 27.2975 27.8389 27.2488 27.8884 27.2001C28.0123 27.0783 28.1361 26.9566 28.2352 26.8348C28.2847 26.7861 28.3342 26.7374 28.3838 26.6887C28.5324 26.5182 28.681 26.3477 28.8296 26.1773C28.8544 26.1529 28.8791 26.1286 28.9039 26.1042C29.0277 25.9581 29.1516 25.812 29.2754 25.6415C29.325 25.5928 29.3745 25.5197 29.3993 25.471C29.4983 25.3249 29.5974 25.2031 29.6965 25.057C29.7212 25.0083 29.7708 24.9596 29.7955 24.9109C29.9194 24.7161 30.0432 24.5456 30.1671 24.3508C30.1918 24.3021 30.2414 24.229 30.2661 24.1803C30.3652 24.0342 30.4395 23.8881 30.5138 23.742C30.5633 23.6689 30.5881 23.6202 30.6129 23.5471C30.712 23.3523 30.811 23.1818 30.9101 22.987C30.9349 22.9627 30.9349 22.914 30.9596 22.8896C31.0587 22.6948 31.133 22.4999 31.2321 22.3051C31.2568 22.2321 31.2816 22.159 31.3311 22.0859C31.4054 21.9398 31.455 21.7694 31.5293 21.5989C31.5541 21.5258 31.5788 21.4771 31.6036 21.4041C31.6779 21.2336 31.7274 21.0631 31.777 20.8683C31.8017 20.8196 31.8265 20.7465 31.8265 20.6978C31.9008 20.4543 31.9751 20.2351 32.0246 19.9916C32.0494 19.9185 32.0742 19.8455 32.0742 19.748C32.1237 19.5776 32.1485 19.4315 32.198 19.261C32.2228 19.1636 32.2476 19.0662 32.2476 18.9687C32.2723 18.8226 32.2971 18.6522 32.3219 18.506C32.3466 18.4086 32.3466 18.3112 32.3714 18.2138C32.3962 18.0677 32.4209 17.8972 32.4209 17.7511C32.4209 17.6537 32.4457 17.5563 32.4457 17.4589C32.4705 17.2884 32.4705 17.1423 32.4952 16.9718C32.4952 16.8744 32.52 16.777 32.52 16.6796C32.52 16.5091 32.52 16.3143 32.5448 16.1438C32.5448 16.0707 32.5448 16.022 32.5448 15.949C32.5448 15.9733 32.5448 15.9733 32.5448 15.949Z" fill="url(#paint22_linear_206_20023)"/>
<path d="M23.7275 10.1774V9.90952L23.7028 2.77405C23.0588 2.57923 22.4148 2.45746 21.7213 2.36005C21.1021 2.28699 20.4829 2.23828 19.839 2.23828C15.6037 2.26263 11.8142 4.28394 9.41174 7.40114C8.34672 8.76492 7.55415 10.3722 7.1331 12.1013C7.03403 12.4909 6.95973 12.905 6.88542 13.319C6.78635 13.9765 6.73682 14.6584 6.73682 15.3403C6.73682 15.5351 6.73682 15.7299 6.76158 15.9491C6.76158 15.9491 6.76158 15.9491 6.76158 15.9734C6.76158 15.9978 6.76158 16.0465 6.76158 16.0709C6.76158 16.0465 6.76158 16.0465 6.76158 16.0222C6.76158 10.8593 11.0216 6.67055 16.2724 6.67055C16.9659 6.67055 17.6594 6.74361 18.3034 6.88973C18.2786 6.88973 18.2786 6.88973 18.2538 6.88973C19.7894 7.20632 21.2012 7.88821 22.3653 8.86233C22.3405 8.83798 22.3158 8.83798 22.291 8.81363C22.8359 9.17892 23.3065 9.66599 23.7275 10.1774Z" fill="url(#paint23_linear_206_20023)"/>
<path d="M20.7058 10.666C19.8885 9.98407 18.873 9.49701 17.7832 9.25348C17.2879 9.15607 16.7925 9.08301 16.2724 9.08301C12.4086 9.08301 9.26312 12.1759 9.26312 15.9749V15.9993C9.26312 16.9491 9.46126 17.8501 9.83278 18.6781C10.8978 21.1865 13.3746 22.8912 16.2724 22.8912C17.1641 22.8912 18.0309 22.7208 18.7987 22.4285C19.8885 22.0145 20.8545 21.3326 21.5975 20.4803C22.6377 19.2626 23.2817 17.704 23.2817 15.9993C23.2817 13.8562 22.291 11.9323 20.7058 10.666Z" fill="url(#paint24_linear_206_20023)"/>
<path d="M27.8638 19.2615C27.8638 17.8003 27.5913 16.3878 27.1455 15.0971C26.7988 14.123 26.3529 13.2219 25.808 12.3696V15.8034V16.2417C25.808 16.3148 25.808 16.3635 25.808 16.4365C25.709 18.5796 24.8669 20.5522 23.5294 22.0865C23.5542 22.0621 23.5542 22.0621 23.5789 22.0378C22.5387 23.2554 21.1765 24.2052 19.6409 24.7653C17.9814 25.5203 16.1486 25.9343 14.2167 25.9343C13.5727 25.9343 12.9535 25.8856 12.3344 25.8125C7.35603 25.155 3.24457 21.7455 1.63466 17.1915C1.16408 15.8764 0.916398 14.4883 0.916398 13.0271C0.916398 11.9069 0.965933 10.811 1.31268 9.8125C1.28791 9.86121 1.28791 9.90991 1.26315 9.95862C1.18884 10.1534 1.11454 10.3483 1.04024 10.5431C1.01547 10.6162 0.990701 10.6649 0.965933 10.7379C0.89163 10.9084 0.842094 11.1032 0.792559 11.2737C0.767791 11.3467 0.743023 11.4442 0.718255 11.5172C0.66872 11.6877 0.619184 11.8582 0.569648 12.0286C0.544881 12.126 0.520113 12.2235 0.495345 12.3452C0.470577 12.4913 0.421042 12.6618 0.396274 12.8079C0.371506 12.9297 0.346738 13.0515 0.32197 13.1489C0.297202 13.295 0.272435 13.4411 0.247667 13.5872C0.222899 13.709 0.222899 13.8551 0.198131 13.9769C0.173363 14.123 0.148596 14.2448 0.148596 14.3909C0.123828 14.5127 0.123828 14.6588 0.123828 14.8049C0.123828 14.951 0.0990601 15.0728 0.0990601 15.2189C0.0990601 15.365 0.0990601 15.4868 0.0990601 15.6329C0.0990601 15.779 0.0990601 15.9251 0.0990601 16.0469C0.0990601 16.0713 0.0990601 16.0713 0.0990601 16.0956C0.0990601 16.3148 0.0990601 16.534 0.123828 16.7531C0.123828 16.8262 0.123828 16.8749 0.123828 16.948C0.123828 17.1428 0.148596 17.3133 0.173363 17.5081C0.173363 17.5811 0.198131 17.6542 0.198131 17.7029C0.222899 17.9464 0.247667 18.1656 0.297202 18.4092C0.297202 18.4579 0.32197 18.4822 0.32197 18.5309C0.346738 18.7257 0.396274 18.9206 0.421042 19.1154C0.445809 19.1885 0.445809 19.2615 0.470577 19.3346C0.520113 19.505 0.544881 19.6999 0.594416 19.8703C0.619184 19.919 0.619184 19.9677 0.643952 20.0165C0.693487 20.2356 0.767791 20.4548 0.817326 20.6496C0.842094 20.7227 0.866862 20.7958 0.89163 20.8688C0.941165 21.0149 0.990701 21.1611 1.04024 21.3315C0.965933 21.4289 0.990701 21.502 1.01547 21.5751C1.08977 21.7699 1.16408 21.9647 1.26315 22.1839C1.28791 22.2569 1.33745 22.33 1.36222 22.4031C1.43652 22.5492 1.48606 22.6709 1.56036 22.8171C1.6099 22.8901 1.63466 22.9875 1.6842 23.0606C1.7585 23.2067 1.83281 23.3772 1.93188 23.5233C1.98141 23.5964 2.03095 23.6938 2.08048 23.7668C2.15479 23.913 2.25386 24.0591 2.32816 24.2052C2.3777 24.2783 2.42723 24.3757 2.47677 24.4487C2.5263 24.5218 2.57584 24.6192 2.62538 24.6923C2.77398 24.9114 2.89782 25.1063 3.04643 25.3011C3.09596 25.3498 3.12073 25.3985 3.17027 25.4716C3.54178 25.983 3.93807 26.4457 4.35912 26.9084C4.40866 26.9571 4.45819 27.0058 4.50773 27.0545C4.6811 27.225 4.85448 27.3954 5.02785 27.5659C5.07739 27.6146 5.12692 27.6633 5.20123 27.712C5.39937 27.9069 5.62228 28.0773 5.82042 28.2722C5.84519 28.2965 5.86996 28.3209 5.89473 28.3209C6.1424 28.5157 6.39008 28.7105 6.63776 28.9053C6.6873 28.9297 6.73683 28.9784 6.7616 29.0028C6.95974 29.1489 7.18265 29.295 7.40556 29.4411C7.47987 29.4898 7.55417 29.5385 7.62847 29.5629C7.82661 29.6846 8.04952 29.8064 8.27243 29.9282C8.32197 29.9525 8.39627 30.0012 8.44581 30.0256C8.71825 30.1717 8.9907 30.3178 9.28791 30.4639C9.31268 30.4639 9.33745 30.4883 9.36222 30.4883C9.6099 30.6101 9.88234 30.7318 10.1548 30.8292C10.2291 30.8536 10.3282 30.9023 10.4025 30.9267C10.6254 30.9997 10.8235 31.0971 11.0464 31.1702C11.1455 31.1945 11.2198 31.2189 11.3189 31.2676C11.5913 31.3407 11.8638 31.4381 12.1362 31.5111C12.161 31.5111 12.2105 31.5355 12.2353 31.5355C12.5325 31.6085 12.8545 31.6816 13.1517 31.7303C13.2508 31.7547 13.3251 31.7547 13.4241 31.779C13.647 31.8277 13.87 31.8521 14.1176 31.8764C14.2167 31.9008 14.3405 31.9008 14.4396 31.9251C14.6873 31.9495 14.9102 31.9738 15.1579 31.9982C15.2322 31.9982 15.3313 32.0225 15.4056 32.0225C15.7275 32.0469 16.0495 32.0469 16.3715 32.0469C16.9412 32.0469 17.5108 32.0225 18.0805 31.9495C20.9783 31.1945 23.4551 29.5142 25.2136 27.225C26.452 25.6177 27.3189 23.6938 27.6904 21.6238C27.7399 21.2828 27.7895 20.9662 27.8142 20.6253C27.8142 20.5035 27.839 20.4061 27.839 20.2843C27.839 19.919 27.8638 19.6025 27.8638 19.2615Z" fill="url(#paint25_linear_206_20023)"/>
</g>
</g>
<defs>
<linearGradient id="paint0_linear_206_20023" x1="44.0384" y1="14.1407" x2="131.518" y2="9.02014" gradientUnits="userSpaceOnUse">
<stop offset="0.000431847" stop-color="#F20078"/>
<stop offset="1" stop-color="#83008D"/>
</linearGradient>
<linearGradient id="paint1_linear_206_20023" x1="44.0741" y1="14.7507" x2="131.554" y2="9.63015" gradientUnits="userSpaceOnUse">
<stop offset="0.000431847" stop-color="#F20078"/>
<stop offset="1" stop-color="#83008D"/>
</linearGradient>
<linearGradient id="paint2_linear_206_20023" x1="44.1565" y1="16.1589" x2="131.636" y2="11.0383" gradientUnits="userSpaceOnUse">
<stop offset="0.000431847" stop-color="#F20078"/>
<stop offset="1" stop-color="#83008D"/>
</linearGradient>
<linearGradient id="paint3_linear_206_20023" x1="44.2763" y1="18.2074" x2="131.756" y2="13.0868" gradientUnits="userSpaceOnUse">
<stop offset="0.000431847" stop-color="#F20078"/>
<stop offset="1" stop-color="#83008D"/>
</linearGradient>
<linearGradient id="paint4_linear_206_20023" x1="44.2215" y1="17.2653" x2="131.701" y2="12.1448" gradientUnits="userSpaceOnUse">
<stop offset="0.000431847" stop-color="#F20078"/>
<stop offset="1" stop-color="#83008D"/>
</linearGradient>
<linearGradient id="paint5_linear_206_20023" x1="16.3347" y1="25.3641" x2="16.7494" y2="25.3641" gradientUnits="userSpaceOnUse">
<stop offset="0.000431847" stop-color="#F20078"/>
<stop offset="1" stop-color="#83008D"/>
</linearGradient>
<linearGradient id="paint6_linear_206_20023" x1="19.5997" y1="24.7801" x2="19.6129" y2="24.7801" gradientUnits="userSpaceOnUse">
<stop offset="0.000431847" stop-color="#F20078"/>
<stop offset="1" stop-color="#83008D"/>
</linearGradient>
<linearGradient id="paint7_linear_206_20023" x1="8.92667" y1="0.562955" x2="21.1808" y2="31.0118" gradientUnits="userSpaceOnUse">
<stop offset="0.000431847" stop-color="#F20078"/>
<stop offset="1" stop-color="#83008D"/>
</linearGradient>
<linearGradient id="paint8_linear_206_20023" x1="23.0258" y1="-5.11244" x2="35.2799" y2="25.3364" gradientUnits="userSpaceOnUse">
<stop offset="0.000431847" stop-color="#F20078"/>
<stop offset="1" stop-color="#83008D"/>
</linearGradient>
<linearGradient id="paint9_linear_206_20023" x1="56.3292" y1="-3.99841" x2="8.62408" y2="28.7793" gradientUnits="userSpaceOnUse">
<stop offset="0.000431847" stop-color="#F20078"/>
<stop offset="1" stop-color="#83008D"/>
</linearGradient>
<linearGradient id="paint10_linear_206_20023" x1="49.7103" y1="-13.6319" x2="2.00519" y2="19.1458" gradientUnits="userSpaceOnUse">
<stop offset="0.000431847" stop-color="#F20078"/>
<stop offset="1" stop-color="#83008D"/>
</linearGradient>
<linearGradient id="paint11_linear_206_20023" x1="11.8634" y1="10.9497" x2="26.2541" y2="27.9979" gradientUnits="userSpaceOnUse">
<stop offset="0.000431847" stop-color="#F20078"/>
<stop offset="1" stop-color="#83008D"/>
</linearGradient>
<linearGradient id="paint12_linear_206_20023" x1="27.6312" y1="20.9136" x2="1.17284" y2="20.9136" gradientUnits="userSpaceOnUse">
<stop offset="0.000431847" stop-color="#F20078"/>
<stop offset="1" stop-color="#83008D"/>
</linearGradient>
<linearGradient id="paint13_linear_206_20023" x1="44.0383" y1="14.1407" x2="131.518" y2="9.02013" gradientUnits="userSpaceOnUse">
<stop offset="0.000431847" stop-color="white"/>
<stop offset="1" stop-color="#D0D0D0"/>
</linearGradient>
<linearGradient id="paint14_linear_206_20023" x1="44.074" y1="14.7507" x2="131.554" y2="9.63014" gradientUnits="userSpaceOnUse">
<stop offset="0.000431847" stop-color="white"/>
<stop offset="1" stop-color="#D0D0D0"/>
</linearGradient>
<linearGradient id="paint15_linear_206_20023" x1="44.1564" y1="16.1589" x2="131.636" y2="11.0383" gradientUnits="userSpaceOnUse">
<stop offset="0.000431847" stop-color="white"/>
<stop offset="1" stop-color="#D0D0D0"/>
</linearGradient>
<linearGradient id="paint16_linear_206_20023" x1="44.2765" y1="18.2074" x2="131.756" y2="13.0868" gradientUnits="userSpaceOnUse">
<stop offset="0.000431847" stop-color="white"/>
<stop offset="1" stop-color="#D0D0D0"/>
</linearGradient>
<linearGradient id="paint17_linear_206_20023" x1="44.2215" y1="17.2653" x2="131.701" y2="12.1448" gradientUnits="userSpaceOnUse">
<stop offset="0.000431847" stop-color="white"/>
<stop offset="1" stop-color="#D0D0D0"/>
</linearGradient>
<linearGradient id="paint18_linear_206_20023" x1="16.3347" y1="25.3621" x2="16.7494" y2="25.3621" gradientUnits="userSpaceOnUse">
<stop offset="0.000431847" stop-color="white"/>
<stop offset="1" stop-color="#D0D0D0"/>
</linearGradient>
<linearGradient id="paint19_linear_206_20023" x1="19.5995" y1="24.7801" x2="19.6127" y2="24.7801" gradientUnits="userSpaceOnUse">
<stop offset="0.000431847" stop-color="white"/>
<stop offset="1" stop-color="#D0D0D0"/>
</linearGradient>
<linearGradient id="paint20_linear_206_20023" x1="8.92667" y1="0.562955" x2="21.1808" y2="31.0118" gradientUnits="userSpaceOnUse">
<stop offset="0.000431847" stop-color="white"/>
<stop offset="1" stop-color="#D0D0D0"/>
</linearGradient>
<linearGradient id="paint21_linear_206_20023" x1="23.0258" y1="-5.11244" x2="35.28" y2="25.3364" gradientUnits="userSpaceOnUse">
<stop offset="0.000431847" stop-color="white"/>
<stop offset="1" stop-color="#D0D0D0"/>
</linearGradient>
<linearGradient id="paint22_linear_206_20023" x1="56.3292" y1="-4.00085" x2="8.62408" y2="28.7768" gradientUnits="userSpaceOnUse">
<stop offset="0.000431847" stop-color="white"/>
<stop offset="1" stop-color="#D0D0D0"/>
</linearGradient>
<linearGradient id="paint23_linear_206_20023" x1="49.7101" y1="-13.6344" x2="2.005" y2="19.1433" gradientUnits="userSpaceOnUse">
<stop offset="0.000431847" stop-color="white"/>
<stop offset="1" stop-color="#D0D0D0"/>
</linearGradient>
<linearGradient id="paint24_linear_206_20023" x1="11.8633" y1="10.9492" x2="26.254" y2="27.9974" gradientUnits="userSpaceOnUse">
<stop offset="0.000431847" stop-color="white"/>
<stop offset="1" stop-color="#D0D0D0"/>
</linearGradient>
<linearGradient id="paint25_linear_206_20023" x1="27.6311" y1="20.9111" x2="1.17272" y2="20.9111" gradientUnits="userSpaceOnUse">
<stop offset="0.000431847" stop-color="white"/>
<stop offset="1" stop-color="#D0D0D0"/>
</linearGradient>
<clipPath id="clip0_206_20023">
<rect width="128" height="32" fill="white"/>
</clipPath>
<clipPath id="clip1_206_20023">
<rect width="128" height="32" fill="white"/>
</clipPath>
</defs>
</svg>
