<svg width="20" height="20" viewBox="0 0 20 20" fill="none" xmlns="http://www.w3.org/2000/svg">
<path d="M9.29722 0C9.76667 0 10.2361 0 10.7028 0C11.0222 0.0444444 11.3444 0.0777778 11.6639 0.133333C13.5111 0.455556 15.15 1.22222 16.5611 2.46111C18.3194 4.00833 19.425 5.93333 19.8444 8.24167C19.9083 8.59167 19.95 8.94445 20 9.29722C20 9.76667 20 10.2361 20 10.7028C19.9694 10.9278 19.9444 11.1528 19.9111 11.375C19.6194 13.3556 18.8278 15.1083 17.5 16.6056C15.9611 18.3417 14.0472 19.4278 11.7583 19.8444C11.4083 19.9083 11.0556 19.95 10.7028 20C10.2333 20 9.76389 20 9.29722 20C9.24167 19.9861 9.18611 19.9694 9.13056 19.9611C8.71944 19.9 8.30556 19.8611 7.9 19.775C5.98889 19.3694 4.33889 18.4639 2.95556 17.0889C1.46667 15.6083 0.527778 13.8306 0.155556 11.7611C0.0944444 11.4083 0.0527778 11.0556 0 10.7028C0 10.2333 0 9.76389 0 9.29722C0.0138889 9.23333 0.0305556 9.17222 0.0388889 9.10833C0.0861111 8.775 0.113889 8.43611 0.177778 8.10556C0.563889 6.13333 1.46111 4.425 2.86944 2.99444C4.35833 1.48333 6.14722 0.530556 8.23889 0.155556C8.59167 0.0944444 8.94445 0.0527778 9.29722 0ZM9.175 7.70278C9.175 8.575 9.18056 9.44722 9.17222 10.3194C9.16945 10.6278 9.27222 10.8667 9.48889 11.0833C10.6556 12.2444 11.8194 13.4083 12.9833 14.5722C13.1861 14.775 13.3833 14.9806 13.5917 15.1778C13.975 15.5417 14.5778 15.4722 14.8639 15.0361C15.0944 14.6833 15.0361 14.2778 14.7 13.9417C13.4528 12.6944 12.2083 11.4472 10.9583 10.2028C10.8639 10.1083 10.825 10.0139 10.825 9.88056C10.8306 8.29445 10.8278 6.70556 10.8278 5.11944C10.8278 5.02222 10.8333 4.92222 10.8139 4.82778C10.725 4.40833 10.3417 4.13889 9.90278 4.18056C9.50278 4.21667 9.18333 4.57222 9.18056 4.99167C9.17222 5.89444 9.175 6.79722 9.175 7.70278Z" fill="#222222"/>
</svg>
