<svg width="16" height="20" viewBox="0 0 16 20" fill="none" xmlns="http://www.w3.org/2000/svg">
<path d="M3.49667 0C4.3251 0 4.99667 0.671573 4.99667 1.5V18.5C4.99667 19.3284 4.3251 20 3.49667 20H1.5C0.671572 20 0 19.3284 0 18.5V1.5C0 0.671573 0.671573 0 1.5 0H3.49667Z" fill="#222222"/>
<path d="M14.4889 0C15.3173 0 15.9889 0.671573 15.9889 1.5V18.5C15.9889 19.3284 15.3173 20 14.4889 20H12.4922C11.6638 20 10.9922 19.3284 10.9922 18.5V1.5C10.9922 0.671573 11.6638 0 12.4922 0H14.4889Z" fill="#222222"/>
</svg>
