<svg width="18" height="22" viewBox="0 0 18 22" fill="none" xmlns="http://www.w3.org/2000/svg">
<path d="M15.246 13.084C15.246 16.5319 12.4458 19.334 9.00014 19.334C5.55453 19.334 2.75431 16.5319 2.75431 13.084C2.75431 9.63607 5.55453 6.83398 9.00014 6.83398V9.79298C9.00014 10.2385 9.53888 10.4616 9.85382 10.1464L13.8518 6.14575C14.0469 5.95052 14.0469 5.63412 13.8518 5.43888L9.85382 1.43822C9.53888 1.12308 9.00014 1.34613 9.00014 1.79166V4.75065C4.39905 4.75065 0.672363 8.47982 0.672363 13.084C0.672363 17.6882 4.39905 21.4173 9.00014 21.4173C13.6012 21.4173 17.3279 17.6882 17.3279 13.084H15.246Z" fill="#222222"/>
<path d="M7.85467 16.2096V11.7617H7.76098L5.91846 12.418V13.1367L6.96984 12.8138V16.2096H7.85467Z" fill="#222222"/>
<path fill-rule="evenodd" clip-rule="evenodd" d="M10.8006 11.709C11.0296 11.709 11.2274 11.7402 11.4148 11.8132C11.5917 11.8861 11.7583 12.0007 11.8936 12.1569C12.029 12.3132 12.133 12.5215 12.2059 12.7507C12.2788 12.9798 12.3204 13.2715 12.3204 13.6048V14.3757C12.3204 14.709 12.2892 14.9902 12.2163 15.2298C12.1435 15.4694 12.0394 15.6673 11.9144 15.8236C11.7895 15.9798 11.6334 16.0944 11.446 16.1673C11.2586 16.2402 11.0608 16.2715 10.8318 16.2715C10.6028 16.2715 10.405 16.2402 10.2177 16.1673C10.0303 16.0944 9.87414 15.9798 9.73881 15.8236C9.60348 15.6673 9.49939 15.459 9.42652 15.2298C9.35365 15.0007 9.31201 14.709 9.31201 14.3757V13.6048C9.31201 13.2715 9.35365 12.9902 9.41611 12.7507C9.47857 12.5111 9.59307 12.3132 9.71799 12.1569C9.84291 12.0007 9.99905 11.8861 10.1864 11.8132C10.3738 11.7402 10.5716 11.709 10.8006 11.709ZM11.3835 14.9902C11.4148 14.8548 11.4252 14.6882 11.4252 14.4902H11.4356V13.4798C11.4356 13.2819 11.4252 13.1152 11.394 12.9798C11.3627 12.8444 11.3211 12.7402 11.269 12.6569C11.217 12.5736 11.1441 12.5111 11.0713 12.4798C10.9984 12.4486 10.9047 12.4277 10.811 12.4277C10.7173 12.4277 10.634 12.4486 10.5508 12.4798C10.4675 12.5111 10.4154 12.5736 10.353 12.6569C10.2905 12.7402 10.2593 12.8444 10.2281 12.9798C10.1968 13.1152 10.1864 13.2819 10.1864 13.4798V14.4902C10.1864 14.6882 10.1968 14.8548 10.2281 14.9902C10.2593 15.1257 10.3009 15.2402 10.353 15.3236C10.405 15.4069 10.4779 15.4694 10.5508 15.5007C10.6236 15.5319 10.7173 15.5527 10.811 15.5527C10.9047 15.5527 10.988 15.5319 11.0713 15.5007C11.1545 15.4694 11.217 15.4069 11.269 15.3236C11.3211 15.2402 11.3523 15.1257 11.3835 14.9902Z" fill="#222222"/>
</svg>
