<svg width="20" height="17" viewBox="0 0 20 17" fill="none" xmlns="http://www.w3.org/2000/svg">
<path d="M10.0121 6.97708C7.161 6.97708 4.30416 6.97708 1.4531 6.97708C1.08373 6.97708 0.74322 6.92847 0.460423 6.73843C0.0448832 6.45558 -0.0936297 6.10201 0.0621976 5.69983C0.218025 5.29765 0.587393 5.05899 1.13567 5.00154C1.24533 4.98828 1.35499 4.98828 1.46464 4.98828C7.15522 4.98828 12.8458 4.98828 18.5364 4.98828C19.3155 4.98828 19.8176 5.26671 19.9677 5.77496C20.1351 6.32299 19.6329 6.88427 18.9058 6.95941C18.7615 6.97266 18.6172 6.97708 18.4729 6.97708C15.6507 6.97708 12.8343 6.97708 10.0121 6.97708Z" fill="#222222"/>
<path d="M9.99705 1.9888C7.14512 1.9888 4.28742 1.9888 1.43549 1.9888C1.07756 1.9888 0.748487 1.94019 0.465604 1.75899C0.0557108 1.49381 -0.100164 1.07395 0.0672574 0.685032C0.234678 0.296111 0.684983 0.0309369 1.22188 0.00441956C1.29116 -4.11604e-09 1.35467 0 1.42394 0C7.13935 0 12.8605 0 18.5759 0C19.3149 0 19.8287 0.296111 19.973 0.799941C20.1347 1.37006 19.5747 1.94461 18.8184 1.98438C18.7087 1.9888 18.599 1.9888 18.4893 1.9888C15.6605 1.9888 12.8317 1.9888 9.99705 1.9888Z" fill="#222222"/>
<path d="M9.98587 9.97852C12.8672 9.97852 15.7485 9.97852 18.6299 9.97852C19.3978 9.97852 19.9637 10.363 20.0041 10.9066C20.0503 11.4591 19.5018 11.9275 18.7742 11.9673C18.6876 11.9717 18.6068 11.9717 18.5201 11.9717C12.8441 11.9717 7.16805 11.9717 1.492 11.9673C1.28413 11.9673 1.06471 11.9541 0.868389 11.9054C0.262098 11.7552 -0.0785809 11.2955 0.0253549 10.7961C0.117742 10.3453 0.648969 9.98735 1.27258 9.98294C3.58804 9.97852 5.89773 9.97852 8.21318 9.97852C8.80215 9.97852 9.39112 9.97852 9.98587 9.97852Z" fill="#222222"/>
<path d="M5.99425 14.9727C7.72305 14.9727 9.45185 14.9727 11.1806 14.9727C11.6414 14.9727 11.981 15.3572 12.0052 15.9008C12.0329 16.4532 11.7038 16.9217 11.2673 16.9615C11.2153 16.9659 11.1668 16.9659 11.1148 16.9659C7.70919 16.9659 4.30357 16.9659 0.897937 16.9615C0.773214 16.9615 0.641562 16.9482 0.523768 16.8996C0.159993 16.7493 -0.0444142 16.2897 0.0179473 15.7903C0.0733797 15.3395 0.392116 14.9815 0.766285 14.9771C2.15556 14.9727 3.54137 14.9727 4.93064 14.9727C5.28403 14.9727 5.63741 14.9727 5.99425 14.9727Z" fill="#222222"/>
</svg>
