<svg width="18" height="22" viewBox="0 0 18 22" fill="none" xmlns="http://www.w3.org/2000/svg">
<path fill-rule="evenodd" clip-rule="evenodd" d="M9.00024 1.02053V4.14619C13.7854 4.14619 17.6611 8.02452 17.6611 12.8129C17.6611 17.6012 13.7854 21.4795 9.00024 21.4795C4.2151 21.4795 0.339355 17.6012 0.339355 12.8129H2.50458C2.50458 16.3987 5.4168 19.3129 9.00024 19.3129C12.5837 19.3129 15.4959 16.3987 15.4959 12.8129C15.4959 9.22702 12.5837 6.31286 9.00024 6.31286V9.43851C9.00024 9.88405 8.46151 10.1071 8.14657 9.79195L3.94039 5.58296C3.74528 5.38772 3.74528 5.07132 3.94039 4.87609L8.14657 0.667098C8.46151 0.351954 9.00024 0.575001 9.00024 1.02053ZM6.88915 16.0629H7.80937V11.437H7.71194L5.79572 12.1195V12.867L6.88915 12.5312V16.0629ZM12.4429 14.1562C12.4429 14.5029 12.4105 14.8062 12.3347 15.0445C12.2589 15.2829 12.1506 15.4995 12.0207 15.662C11.8908 15.8245 11.7176 15.9437 11.5336 16.0195C11.3495 16.0954 11.133 16.1279 10.8948 16.1279C10.6566 16.1279 10.4509 16.0954 10.2561 16.0195C10.0612 15.9437 9.89881 15.8245 9.75807 15.662C9.61733 15.4995 9.50907 15.2937 9.43329 15.0445C9.35751 14.7954 9.3142 14.5029 9.3142 14.1562V13.3545C9.3142 13.0079 9.34668 12.7045 9.42246 12.4662C9.49825 12.2279 9.60651 12.0112 9.73642 11.8487C9.86633 11.6862 10.0396 11.567 10.2236 11.4912C10.4076 11.4154 10.6242 11.3829 10.8623 11.3829C11.1005 11.3829 11.3062 11.4154 11.5011 11.4912C11.6959 11.567 11.8583 11.6862 11.9991 11.8487C12.1398 12.0112 12.2481 12.217 12.3239 12.4662C12.3996 12.7154 12.4429 13.0079 12.4429 13.3545V14.1562ZM11.4794 12.7045C11.5119 12.8454 11.5227 13.0187 11.5227 13.2245H11.5119V14.2754C11.5119 14.4812 11.4903 14.6545 11.4686 14.7954C11.4469 14.9362 11.4036 15.0554 11.3495 15.142C11.2954 15.2287 11.2196 15.2937 11.1438 15.3262C11.068 15.3587 10.9706 15.3804 10.8732 15.3804C10.7757 15.3804 10.6891 15.3587 10.6025 15.3262C10.5159 15.2937 10.4509 15.2287 10.3968 15.142C10.3427 15.0554 10.2994 14.9362 10.2669 14.7954C10.2344 14.6545 10.2236 14.4812 10.2236 14.2754V13.2245C10.2236 13.0187 10.2344 12.8454 10.2669 12.7045C10.2994 12.5637 10.3427 12.4554 10.3968 12.3687C10.4509 12.282 10.5267 12.217 10.6025 12.1845C10.6783 12.152 10.7757 12.1304 10.8732 12.1304C10.9706 12.1304 11.0572 12.152 11.1438 12.1845C11.2304 12.217 11.2954 12.282 11.3495 12.3687C11.4036 12.4554 11.4469 12.5637 11.4794 12.7045Z" fill="#222222"/>
</svg>
