<svg width="1238" height="22" viewBox="0 0 1238 22" fill="none" xmlns="http://www.w3.org/2000/svg">
<path d="M133.358 12.2222V10" stroke="#222222" stroke-width="2" stroke-linecap="square"/>
<path d="M137.356 13.4445V9" stroke="#222222" stroke-width="2" stroke-linecap="square"/>
<path d="M141.35 14.6667V8" stroke="#222222" stroke-width="2" stroke-linecap="square"/>
<path d="M145.346 14.7778V7" stroke="#222222" stroke-width="2" stroke-linecap="square"/>
<path d="M149.342 17.2222V5" stroke="#222222" stroke-width="2" stroke-linecap="square"/>
<path d="M153.336 14.6667V8" stroke="#222222" stroke-width="2" stroke-linecap="square"/>
<path d="M157.334 12.2222V10" stroke="#222222" stroke-width="2" stroke-linecap="square"/>
<path d="M161.33 13.4445V9" stroke="#222222" stroke-width="2" stroke-linecap="square"/>
<path d="M165.325 14.6667V8" stroke="#222222" stroke-width="2" stroke-linecap="square"/>
<path d="M169.319 16V6" stroke="#222222" stroke-width="2" stroke-linecap="square"/>
<path d="M173.317 18.4445V4" stroke="#222222" stroke-width="2" stroke-linecap="square"/>
<path d="M177.313 17.2222V5" stroke="#222222" stroke-width="2" stroke-linecap="square"/>
<path d="M1.49842 14.7778V7" stroke="#222222" stroke-width="2" stroke-linecap="square"/>
<path d="M181.307 14.7778V7" stroke="#222222" stroke-width="2" stroke-linecap="square"/>
<path d="M5.49255 12.3333V9" stroke="#222222" stroke-width="2" stroke-linecap="square"/>
<path d="M185.303 12.3333V9" stroke="#222222" stroke-width="2" stroke-linecap="square"/>
<path d="M9.4906 12.2222V10" stroke="#222222" stroke-width="2" stroke-linecap="square"/>
<path d="M189.299 12.2222V10" stroke="#222222" stroke-width="2" stroke-linecap="square"/>
<path d="M13.4867 16V6" stroke="#222222" stroke-width="2" stroke-linecap="square"/>
<path d="M193.295 16V6" stroke="#222222" stroke-width="2" stroke-linecap="square"/>
<path d="M17.4828 18.4445V4" stroke="#222222" stroke-width="2" stroke-linecap="square"/>
<path d="M197.289 18.4445V4" stroke="#222222" stroke-width="2" stroke-linecap="square"/>
<path d="M21.4768 14.7778V7" stroke="#222222" stroke-width="2" stroke-linecap="square"/>
<path d="M201.287 14.7778V7" stroke="#222222" stroke-width="2" stroke-linecap="square"/>
<path d="M25.473 16V6" stroke="#222222" stroke-width="2" stroke-linecap="square"/>
<path d="M205.282 16V6" stroke="#222222" stroke-width="2" stroke-linecap="square"/>
<path d="M29.4672 13.5555V8" stroke="#222222" stroke-width="2" stroke-linecap="square"/>
<path d="M209.278 13.5555V8" stroke="#222222" stroke-width="2" stroke-linecap="square"/>
<path d="M33.4652 12.3333V9" stroke="#222222" stroke-width="2" stroke-linecap="square"/>
<path d="M213.274 12.3333V9" stroke="#222222" stroke-width="2" stroke-linecap="square"/>
<path d="M37.4613 14.6667V8" stroke="#222222" stroke-width="2" stroke-linecap="square"/>
<path d="M217.268 14.6667V8" stroke="#222222" stroke-width="2" stroke-linecap="square"/>
<path d="M41.4554 16V6" stroke="#222222" stroke-width="2" stroke-linecap="square"/>
<path d="M221.266 16V6" stroke="#222222" stroke-width="2" stroke-linecap="square"/>
<path d="M45.4515 18.4445V4" stroke="#222222" stroke-width="2" stroke-linecap="square"/>
<path d="M225.262 18.4445V4" stroke="#222222" stroke-width="2" stroke-linecap="square"/>
<path d="M49.4476 19.7778V2" stroke="#222222" stroke-width="2" stroke-linecap="square"/>
<path d="M229.256 19.7778V2" stroke="#222222" stroke-width="2" stroke-linecap="square"/>
<path d="M53.4437 18.5555V3" stroke="#222222" stroke-width="2" stroke-linecap="square"/>
<path d="M233.252 18.5555V3" stroke="#222222" stroke-width="2" stroke-linecap="square"/>
<path d="M57.4398 21V1" stroke="#222222" stroke-width="2" stroke-linecap="square"/>
<path d="M237.248 21V1" stroke="#222222" stroke-width="2" stroke-linecap="square"/>
<path d="M61.4359 18.4445V4" stroke="#222222" stroke-width="2" stroke-linecap="square"/>
<path d="M241.245 18.4445V4" stroke="#222222" stroke-width="2" stroke-linecap="square"/>
<path d="M65.4301 18.5555V3" stroke="#222222" stroke-width="2" stroke-linecap="square"/>
<path d="M245.241 18.5555V3" stroke="#222222" stroke-width="2" stroke-linecap="square"/>
<path d="M69.4261 17.3333V4" stroke="#222222" stroke-width="2" stroke-linecap="square"/>
<path d="M249.237 17.3333V4" stroke="#222222" stroke-width="2" stroke-linecap="square"/>
<path d="M73.4222 16V6" stroke="#222222" stroke-width="2" stroke-linecap="square"/>
<path d="M253.231 16V6" stroke="#222222" stroke-width="2" stroke-linecap="square"/>
<path d="M77.4183 14.6667V8" stroke="#222222" stroke-width="2" stroke-linecap="square"/>
<path d="M257.225 14.6667V8" stroke="#222222" stroke-width="2" stroke-linecap="square"/>
<path d="M81.4125 16V6" stroke="#222222" stroke-width="2" stroke-linecap="square"/>
<path d="M261.225 16V6" stroke="#222222" stroke-width="2" stroke-linecap="square"/>
<path d="M85.4105 13.4445V9" stroke="#222222" stroke-width="2" stroke-linecap="square"/>
<path d="M265.219 13.4445V9" stroke="#222222" stroke-width="2" stroke-linecap="square"/>
<path d="M89.4047 12.3333V9" stroke="#222222" stroke-width="2" stroke-linecap="square"/>
<path d="M269.213 12.3333V9" stroke="#222222" stroke-width="2" stroke-linecap="square"/>
<path d="M93.3988 14.7778V7" stroke="#222222" stroke-width="2" stroke-linecap="square"/>
<path d="M273.209 14.7778V7" stroke="#222222" stroke-width="2" stroke-linecap="square"/>
<path d="M97.3988 17.3333V4" stroke="#222222" stroke-width="2" stroke-linecap="square"/>
<path d="M277.205 17.3333V4" stroke="#222222" stroke-width="2" stroke-linecap="square"/>
<path d="M101.393 16V6" stroke="#222222" stroke-width="2" stroke-linecap="square"/>
<path d="M281.202 16V6" stroke="#222222" stroke-width="2" stroke-linecap="square"/>
<path d="M105.389 18.5555V3" stroke="#222222" stroke-width="2" stroke-linecap="square"/>
<path d="M285.198 18.5555V3" stroke="#222222" stroke-width="2" stroke-linecap="square"/>
<path d="M109.383 16V6" stroke="#222222" stroke-width="2" stroke-linecap="square"/>
<path d="M289.194 16V6" stroke="#222222" stroke-width="2" stroke-linecap="square"/>
<path d="M113.379 14.7778V7" stroke="#222222" stroke-width="2" stroke-linecap="square"/>
<path d="M293.188 14.7778V7" stroke="#222222" stroke-width="2" stroke-linecap="square"/>
<path d="M117.375 17.3333V4" stroke="#222222" stroke-width="2" stroke-linecap="square"/>
<path d="M297.184 17.3333V4" stroke="#222222" stroke-width="2" stroke-linecap="square"/>
<path d="M121.371 16V6" stroke="#222222" stroke-width="2" stroke-linecap="square"/>
<path d="M301.182 16V6" stroke="#222222" stroke-width="2" stroke-linecap="square"/>
<path d="M125.368 14.6667V8" stroke="#222222" stroke-width="2" stroke-linecap="square"/>
<path d="M305.176 14.6667V8" stroke="#222222" stroke-width="2" stroke-linecap="square"/>
<path d="M129.362 13.4445V9" stroke="#222222" stroke-width="2" stroke-linecap="square"/>
<path d="M309.172 13.4445V9" stroke="#222222" stroke-width="2" stroke-linecap="square"/>
<path d="M313.168 12.2222V10" stroke="#B2B2B2" stroke-width="2" stroke-linecap="square"/>
<path d="M492.977 12.2222V10" stroke="#B2B2B2" stroke-width="2" stroke-linecap="square"/>
<path d="M317.162 13.4445V9" stroke="#B2B2B2" stroke-width="2" stroke-linecap="square"/>
<path d="M496.973 13.4445V9" stroke="#B2B2B2" stroke-width="2" stroke-linecap="square"/>
<path d="M321.159 14.6667V8" stroke="#B2B2B2" stroke-width="2" stroke-linecap="square"/>
<path d="M500.969 14.6667V8" stroke="#B2B2B2" stroke-width="2" stroke-linecap="square"/>
<path d="M325.155 14.7778V7" stroke="#B2B2B2" stroke-width="2" stroke-linecap="square"/>
<path d="M504.963 14.7778V7" stroke="#B2B2B2" stroke-width="2" stroke-linecap="square"/>
<path d="M329.151 17.2222V5" stroke="#B2B2B2" stroke-width="2" stroke-linecap="square"/>
<path d="M508.959 17.2222V5" stroke="#B2B2B2" stroke-width="2" stroke-linecap="square"/>
<path d="M333.147 14.6667V8" stroke="#B2B2B2" stroke-width="2" stroke-linecap="square"/>
<path d="M512.957 14.6667V8" stroke="#B2B2B2" stroke-width="2" stroke-linecap="square"/>
<path d="M337.143 12.2222V10" stroke="#B2B2B2" stroke-width="2" stroke-linecap="square"/>
<path d="M516.952 12.2222V10" stroke="#B2B2B2" stroke-width="2" stroke-linecap="square"/>
<path d="M341.137 13.4445V9" stroke="#B2B2B2" stroke-width="2" stroke-linecap="square"/>
<path d="M520.946 13.4445V9" stroke="#B2B2B2" stroke-width="2" stroke-linecap="square"/>
<path d="M345.133 14.6667V8" stroke="#B2B2B2" stroke-width="2" stroke-linecap="square"/>
<path d="M524.942 14.6667V8" stroke="#B2B2B2" stroke-width="2" stroke-linecap="square"/>
<path d="M349.131 16V6" stroke="#B2B2B2" stroke-width="2" stroke-linecap="square"/>
<path d="M528.94 16V6" stroke="#B2B2B2" stroke-width="2" stroke-linecap="square"/>
<path d="M353.125 18.4445V4" stroke="#B2B2B2" stroke-width="2" stroke-linecap="square"/>
<path d="M532.936 18.4445V4" stroke="#B2B2B2" stroke-width="2" stroke-linecap="square"/>
<path d="M357.12 17.2222V5" stroke="#B2B2B2" stroke-width="2" stroke-linecap="square"/>
<path d="M536.93 17.2222V5" stroke="#B2B2B2" stroke-width="2" stroke-linecap="square"/>
<path d="M361.116 14.7778V7" stroke="#B2B2B2" stroke-width="2" stroke-linecap="square"/>
<path d="M540.926 14.7778V7" stroke="#B2B2B2" stroke-width="2" stroke-linecap="square"/>
<path d="M365.114 12.3333V9" stroke="#B2B2B2" stroke-width="2" stroke-linecap="square"/>
<path d="M544.92 12.3333V9" stroke="#B2B2B2" stroke-width="2" stroke-linecap="square"/>
<path d="M369.108 12.2222V10" stroke="#B2B2B2" stroke-width="2" stroke-linecap="square"/>
<path d="M548.916 12.2222V10" stroke="#B2B2B2" stroke-width="2" stroke-linecap="square"/>
<path d="M373.104 16V6" stroke="#B2B2B2" stroke-width="2" stroke-linecap="square"/>
<path d="M552.914 16V6" stroke="#B2B2B2" stroke-width="2" stroke-linecap="square"/>
<path d="M377.1 18.4445V4" stroke="#B2B2B2" stroke-width="2" stroke-linecap="square"/>
<path d="M556.909 18.4445V4" stroke="#B2B2B2" stroke-width="2" stroke-linecap="square"/>
<path d="M381.094 14.7778V7" stroke="#B2B2B2" stroke-width="2" stroke-linecap="square"/>
<path d="M560.905 14.7778V7" stroke="#B2B2B2" stroke-width="2" stroke-linecap="square"/>
<path d="M385.092 16V6" stroke="#B2B2B2" stroke-width="2" stroke-linecap="square"/>
<path d="M564.901 16V6" stroke="#B2B2B2" stroke-width="2" stroke-linecap="square"/>
<path d="M389.088 13.5555V8" stroke="#B2B2B2" stroke-width="2" stroke-linecap="square"/>
<path d="M568.895 13.5555V8" stroke="#B2B2B2" stroke-width="2" stroke-linecap="square"/>
<path d="M393.082 12.3333V9" stroke="#B2B2B2" stroke-width="2" stroke-linecap="square"/>
<path d="M572.893 12.3333V9" stroke="#B2B2B2" stroke-width="2" stroke-linecap="square"/>
<path d="M397.079 14.6667V8" stroke="#B2B2B2" stroke-width="2" stroke-linecap="square"/>
<path d="M576.889 14.6667V8" stroke="#B2B2B2" stroke-width="2" stroke-linecap="square"/>
<path d="M401.075 16V6" stroke="#B2B2B2" stroke-width="2" stroke-linecap="square"/>
<path d="M580.883 16V6" stroke="#B2B2B2" stroke-width="2" stroke-linecap="square"/>
<path d="M405.071 18.4445V4" stroke="#B2B2B2" stroke-width="2" stroke-linecap="square"/>
<path d="M584.879 18.4445V4" stroke="#B2B2B2" stroke-width="2" stroke-linecap="square"/>
<path d="M409.067 19.7778V2" stroke="#B2B2B2" stroke-width="2" stroke-linecap="square"/>
<path d="M588.873 19.7778V2" stroke="#B2B2B2" stroke-width="2" stroke-linecap="square"/>
<path d="M413.063 18.5555V3" stroke="#B2B2B2" stroke-width="2" stroke-linecap="square"/>
<path d="M592.871 18.5555V3" stroke="#B2B2B2" stroke-width="2" stroke-linecap="square"/>
<path d="M417.057 21V1" stroke="#B2B2B2" stroke-width="2" stroke-linecap="square"/>
<path d="M596.866 21V1" stroke="#B2B2B2" stroke-width="2" stroke-linecap="square"/>
<path d="M421.051 18.4445V4" stroke="#B2B2B2" stroke-width="2" stroke-linecap="square"/>
<path d="M600.864 18.4445V4" stroke="#B2B2B2" stroke-width="2" stroke-linecap="square"/>
<path d="M425.049 18.5555V3" stroke="#B2B2B2" stroke-width="2" stroke-linecap="square"/>
<path d="M604.858 18.5555V3" stroke="#B2B2B2" stroke-width="2" stroke-linecap="square"/>
<path d="M429.045 17.3333V4" stroke="#B2B2B2" stroke-width="2" stroke-linecap="square"/>
<path d="M608.854 17.3333V4" stroke="#B2B2B2" stroke-width="2" stroke-linecap="square"/>
<path d="M433.039 16V6" stroke="#B2B2B2" stroke-width="2" stroke-linecap="square"/>
<path d="M612.85 16V6" stroke="#B2B2B2" stroke-width="2" stroke-linecap="square"/>
<path d="M437.037 14.6667V8" stroke="#B2B2B2" stroke-width="2" stroke-linecap="square"/>
<path d="M616.846 14.6667V8" stroke="#B2B2B2" stroke-width="2" stroke-linecap="square"/>
<path d="M441.032 16V6" stroke="#B2B2B2" stroke-width="2" stroke-linecap="square"/>
<path d="M620.84 16V6" stroke="#B2B2B2" stroke-width="2" stroke-linecap="square"/>
<path d="M445.028 13.4445V9" stroke="#B2B2B2" stroke-width="2" stroke-linecap="square"/>
<path d="M624.836 13.4445V9" stroke="#B2B2B2" stroke-width="2" stroke-linecap="square"/>
<path d="M449.024 12.3333V9" stroke="#B2B2B2" stroke-width="2" stroke-linecap="square"/>
<path d="M628.832 12.3333V9" stroke="#B2B2B2" stroke-width="2" stroke-linecap="square"/>
<path d="M453.02 14.7778V7" stroke="#B2B2B2" stroke-width="2" stroke-linecap="square"/>
<path d="M632.828 14.7778V7" stroke="#B2B2B2" stroke-width="2" stroke-linecap="square"/>
<path d="M457.014 17.3333V4" stroke="#B2B2B2" stroke-width="2" stroke-linecap="square"/>
<path d="M636.825 17.3333V4" stroke="#B2B2B2" stroke-width="2" stroke-linecap="square"/>
<path d="M461.01 16V6" stroke="#B2B2B2" stroke-width="2" stroke-linecap="square"/>
<path d="M640.821 16V6" stroke="#B2B2B2" stroke-width="2" stroke-linecap="square"/>
<path d="M465.006 18.5555V3" stroke="#B2B2B2" stroke-width="2" stroke-linecap="square"/>
<path d="M644.815 18.5555V3" stroke="#B2B2B2" stroke-width="2" stroke-linecap="square"/>
<path d="M469.002 16V6" stroke="#B2B2B2" stroke-width="2" stroke-linecap="square"/>
<path d="M648.811 16V6" stroke="#B2B2B2" stroke-width="2" stroke-linecap="square"/>
<path d="M472.998 14.7778V7" stroke="#B2B2B2" stroke-width="2" stroke-linecap="square"/>
<path d="M652.807 14.7778V7" stroke="#B2B2B2" stroke-width="2" stroke-linecap="square"/>
<path d="M476.995 17.3333V4" stroke="#B2B2B2" stroke-width="2" stroke-linecap="square"/>
<path d="M656.803 17.3333V4" stroke="#B2B2B2" stroke-width="2" stroke-linecap="square"/>
<path d="M480.989 16V6" stroke="#B2B2B2" stroke-width="2" stroke-linecap="square"/>
<path d="M660.799 16V6" stroke="#B2B2B2" stroke-width="2" stroke-linecap="square"/>
<path d="M484.985 14.6667V8" stroke="#B2B2B2" stroke-width="2" stroke-linecap="square"/>
<path d="M664.796 14.6667V8" stroke="#B2B2B2" stroke-width="2" stroke-linecap="square"/>
<path d="M488.983 13.4445V9" stroke="#B2B2B2" stroke-width="2" stroke-linecap="square"/>
<path d="M668.789 13.4445V9" stroke="#B2B2B2" stroke-width="2" stroke-linecap="square"/>
<path d="M672.786 12.2222V10" stroke="#B2B2B2" stroke-width="2" stroke-linecap="square"/>
<path d="M676.782 13.4445V9" stroke="#B2B2B2" stroke-width="2" stroke-linecap="square"/>
<path d="M680.778 14.6667V8" stroke="#B2B2B2" stroke-width="2" stroke-linecap="square"/>
<path d="M684.772 14.7778V7" stroke="#B2B2B2" stroke-width="2" stroke-linecap="square"/>
<path d="M688.77 17.2222V5" stroke="#B2B2B2" stroke-width="2" stroke-linecap="square"/>
<path d="M692.764 14.6667V8" stroke="#B2B2B2" stroke-width="2" stroke-linecap="square"/>
<path d="M696.762 12.2222V10" stroke="#B2B2B2" stroke-width="2" stroke-linecap="square"/>
<path d="M700.756 13.4445V9" stroke="#B2B2B2" stroke-width="2" stroke-linecap="square"/>
<path d="M704.752 14.6667V8" stroke="#B2B2B2" stroke-width="2" stroke-linecap="square"/>
<path d="M708.746 16V6" stroke="#B2B2B2" stroke-width="2" stroke-linecap="square"/>
<path d="M712.743 18.4445V4" stroke="#B2B2B2" stroke-width="2" stroke-linecap="square"/>
<path d="M716.741 17.2222V5" stroke="#B2B2B2" stroke-width="2" stroke-linecap="square"/>
<path d="M720.735 14.7778V7" stroke="#B2B2B2" stroke-width="2" stroke-linecap="square"/>
<path d="M724.731 12.3333V9" stroke="#B2B2B2" stroke-width="2" stroke-linecap="square"/>
<path d="M728.727 12.2222V10" stroke="#B2B2B2" stroke-width="2" stroke-linecap="square"/>
<path d="M732.721 16V6" stroke="#B2B2B2" stroke-width="2" stroke-linecap="square"/>
<path d="M736.719 18.4445V4" stroke="#B2B2B2" stroke-width="2" stroke-linecap="square"/>
<path d="M740.715 14.7778V7" stroke="#B2B2B2" stroke-width="2" stroke-linecap="square"/>
<path d="M744.709 16V6" stroke="#B2B2B2" stroke-width="2" stroke-linecap="square"/>
<path d="M748.705 13.5555V8" stroke="#B2B2B2" stroke-width="2" stroke-linecap="square"/>
<path d="M752.7 12.3333V9" stroke="#B2B2B2" stroke-width="2" stroke-linecap="square"/>
<path d="M756.698 14.6667V8" stroke="#B2B2B2" stroke-width="2" stroke-linecap="square"/>
<path d="M760.694 16V6" stroke="#B2B2B2" stroke-width="2" stroke-linecap="square"/>
<path d="M764.69 18.4445V4" stroke="#B2B2B2" stroke-width="2" stroke-linecap="square"/>
<path d="M768.684 19.7778V2" stroke="#B2B2B2" stroke-width="2" stroke-linecap="square"/>
<path d="M772.678 18.5555V3" stroke="#B2B2B2" stroke-width="2" stroke-linecap="square"/>
<path d="M776.678 21V1" stroke="#B2B2B2" stroke-width="2" stroke-linecap="square"/>
<path d="M780.672 18.4445V4" stroke="#B2B2B2" stroke-width="2" stroke-linecap="square"/>
<path d="M784.668 18.5555V3" stroke="#B2B2B2" stroke-width="2" stroke-linecap="square"/>
<path d="M788.663 17.3333V4" stroke="#B2B2B2" stroke-width="2" stroke-linecap="square"/>
<path d="M792.659 16V6" stroke="#B2B2B2" stroke-width="2" stroke-linecap="square"/>
<path d="M796.653 14.6667V8" stroke="#B2B2B2" stroke-width="2" stroke-linecap="square"/>
<path d="M800.651 16V6" stroke="#B2B2B2" stroke-width="2" stroke-linecap="square"/>
<path d="M804.647 13.4445V9" stroke="#B2B2B2" stroke-width="2" stroke-linecap="square"/>
<path d="M808.641 12.3333V9" stroke="#B2B2B2" stroke-width="2" stroke-linecap="square"/>
<path d="M812.637 14.7778V7" stroke="#B2B2B2" stroke-width="2" stroke-linecap="square"/>
<path d="M816.633 17.3333V4" stroke="#B2B2B2" stroke-width="2" stroke-linecap="square"/>
<path d="M968.473 17.3333V4" stroke="#B2B2B2" stroke-width="2" stroke-linecap="square"/>
<path d="M820.629 16V6" stroke="#B2B2B2" stroke-width="2" stroke-linecap="square"/>
<path d="M972.467 16V6" stroke="#B2B2B2" stroke-width="2" stroke-linecap="square"/>
<path d="M824.625 18.5555V3" stroke="#B2B2B2" stroke-width="2" stroke-linecap="square"/>
<path d="M976.463 18.5555V3" stroke="#B2B2B2" stroke-width="2" stroke-linecap="square"/>
<path d="M828.622 16V6" stroke="#B2B2B2" stroke-width="2" stroke-linecap="square"/>
<path d="M980.459 16V6" stroke="#B2B2B2" stroke-width="2" stroke-linecap="square"/>
<path d="M832.616 14.7778V7" stroke="#B2B2B2" stroke-width="2" stroke-linecap="square"/>
<path d="M984.455 14.7778V7" stroke="#B2B2B2" stroke-width="2" stroke-linecap="square"/>
<path d="M836.612 17.3333V4" stroke="#B2B2B2" stroke-width="2" stroke-linecap="square"/>
<path d="M988.451 17.3333V4" stroke="#B2B2B2" stroke-width="2" stroke-linecap="square"/>
<path d="M840.608 16V6" stroke="#B2B2B2" stroke-width="2" stroke-linecap="square"/>
<path d="M992.448 16V6" stroke="#B2B2B2" stroke-width="2" stroke-linecap="square"/>
<path d="M844.604 14.6667V8" stroke="#B2B2B2" stroke-width="2" stroke-linecap="square"/>
<path d="M996.442 14.6667V8" stroke="#B2B2B2" stroke-width="2" stroke-linecap="square"/>
<path d="M848.6 13.4445V9" stroke="#B2B2B2" stroke-width="2" stroke-linecap="square"/>
<path d="M1000.44 13.4445V9" stroke="#B2B2B2" stroke-width="2" stroke-linecap="square"/>
<path d="M852.596 12.2222V10" stroke="#B2B2B2" stroke-width="2" stroke-linecap="square"/>
<path d="M1004.44 12.2222V10" stroke="#B2B2B2" stroke-width="2" stroke-linecap="square"/>
<path d="M856.59 13.4445V9" stroke="#B2B2B2" stroke-width="2" stroke-linecap="square"/>
<path d="M1008.43 13.4445V9" stroke="#B2B2B2" stroke-width="2" stroke-linecap="square"/>
<path d="M860.586 14.6667V8" stroke="#B2B2B2" stroke-width="2" stroke-linecap="square"/>
<path d="M1012.43 14.6667V8" stroke="#B2B2B2" stroke-width="2" stroke-linecap="square"/>
<path d="M864.584 14.7778V7" stroke="#B2B2B2" stroke-width="2" stroke-linecap="square"/>
<path d="M1016.42 14.7778V7" stroke="#B2B2B2" stroke-width="2" stroke-linecap="square"/>
<path d="M868.578 17.2222V5" stroke="#B2B2B2" stroke-width="2" stroke-linecap="square"/>
<path d="M1020.42 17.2222V5" stroke="#B2B2B2" stroke-width="2" stroke-linecap="square"/>
<path d="M872.575 14.6667V8" stroke="#B2B2B2" stroke-width="2" stroke-linecap="square"/>
<path d="M1024.41 14.6667V8" stroke="#B2B2B2" stroke-width="2" stroke-linecap="square"/>
<path d="M876.569 12.2222V10" stroke="#B2B2B2" stroke-width="2" stroke-linecap="square"/>
<path d="M1028.41 12.2222V10" stroke="#B2B2B2" stroke-width="2" stroke-linecap="square"/>
<path d="M880.567 13.4445V9" stroke="#B2B2B2" stroke-width="2" stroke-linecap="square"/>
<path d="M1032.4 13.4445V9" stroke="#B2B2B2" stroke-width="2" stroke-linecap="square"/>
<path d="M884.561 14.6667V8" stroke="#B2B2B2" stroke-width="2" stroke-linecap="square"/>
<path d="M1036.4 14.6667V8" stroke="#B2B2B2" stroke-width="2" stroke-linecap="square"/>
<path d="M888.557 16V6" stroke="#B2B2B2" stroke-width="2" stroke-linecap="square"/>
<path d="M1040.39 16V6" stroke="#B2B2B2" stroke-width="2" stroke-linecap="square"/>
<path d="M892.553 18.4445V4" stroke="#B2B2B2" stroke-width="2" stroke-linecap="square"/>
<path d="M1044.39 18.4445V4" stroke="#B2B2B2" stroke-width="2" stroke-linecap="square"/>
<path d="M896.547 17.2222V5" stroke="#B2B2B2" stroke-width="2" stroke-linecap="square"/>
<path d="M1048.39 17.2222V5" stroke="#B2B2B2" stroke-width="2" stroke-linecap="square"/>
<path d="M900.545 14.7778V7" stroke="#B2B2B2" stroke-width="2" stroke-linecap="square"/>
<path d="M1052.38 14.7778V7" stroke="#B2B2B2" stroke-width="2" stroke-linecap="square"/>
<path d="M904.541 12.3333V9" stroke="#B2B2B2" stroke-width="2" stroke-linecap="square"/>
<path d="M1056.38 12.3333V9" stroke="#B2B2B2" stroke-width="2" stroke-linecap="square"/>
<path d="M908.536 12.2222V10" stroke="#B2B2B2" stroke-width="2" stroke-linecap="square"/>
<path d="M1060.37 12.2222V10" stroke="#B2B2B2" stroke-width="2" stroke-linecap="square"/>
<path d="M912.532 16V6" stroke="#B2B2B2" stroke-width="2" stroke-linecap="square"/>
<path d="M1064.37 16V6" stroke="#B2B2B2" stroke-width="2" stroke-linecap="square"/>
<path d="M916.528 18.4445V4" stroke="#B2B2B2" stroke-width="2" stroke-linecap="square"/>
<path d="M1068.37 18.4445V4" stroke="#B2B2B2" stroke-width="2" stroke-linecap="square"/>
<path d="M920.522 14.7778V7" stroke="#B2B2B2" stroke-width="2" stroke-linecap="square"/>
<path d="M1072.36 14.7778V7" stroke="#B2B2B2" stroke-width="2" stroke-linecap="square"/>
<path d="M924.52 16V6" stroke="#B2B2B2" stroke-width="2" stroke-linecap="square"/>
<path d="M1076.36 16V6" stroke="#B2B2B2" stroke-width="2" stroke-linecap="square"/>
<path d="M928.516 13.5555V8" stroke="#B2B2B2" stroke-width="2" stroke-linecap="square"/>
<path d="M1080.35 13.5555V8" stroke="#B2B2B2" stroke-width="2" stroke-linecap="square"/>
<path d="M932.51 12.3333V9" stroke="#B2B2B2" stroke-width="2" stroke-linecap="square"/>
<path d="M1084.35 12.3333V9" stroke="#B2B2B2" stroke-width="2" stroke-linecap="square"/>
<path d="M936.504 14.6667V8" stroke="#B2B2B2" stroke-width="2" stroke-linecap="square"/>
<path d="M1088.34 14.6667V8" stroke="#B2B2B2" stroke-width="2" stroke-linecap="square"/>
<path d="M1220.52 14.6667V8" stroke="#B2B2B2" stroke-width="2" stroke-linecap="square"/>
<path d="M940.502 16V6" stroke="#B2B2B2" stroke-width="2" stroke-linecap="square"/>
<path d="M1092.34 16V6" stroke="#B2B2B2" stroke-width="2" stroke-linecap="square"/>
<path d="M1224.52 16V6" stroke="#B2B2B2" stroke-width="2" stroke-linecap="square"/>
<path d="M944.498 18.4445V4" stroke="#B2B2B2" stroke-width="2" stroke-linecap="square"/>
<path d="M1096.34 18.4445V4" stroke="#B2B2B2" stroke-width="2" stroke-linecap="square"/>
<path d="M1228.51 18.4445V4" stroke="#B2B2B2" stroke-width="2" stroke-linecap="square"/>
<path d="M948.493 19.7778V2" stroke="#B2B2B2" stroke-width="2" stroke-linecap="square"/>
<path d="M1100.33 19.7778V2" stroke="#B2B2B2" stroke-width="2" stroke-linecap="square"/>
<path d="M1232.51 19.7778V2" stroke="#B2B2B2" stroke-width="2" stroke-linecap="square"/>
<path d="M952.489 18.5555V3" stroke="#B2B2B2" stroke-width="2" stroke-linecap="square"/>
<path d="M1104.33 18.5555V3" stroke="#B2B2B2" stroke-width="2" stroke-linecap="square"/>
<path d="M1236.5 18.5555V3" stroke="#B2B2B2" stroke-width="2" stroke-linecap="square"/>
<path d="M956.485 21V1" stroke="#B2B2B2" stroke-width="2" stroke-linecap="square"/>
<path d="M1108.32 21V1" stroke="#B2B2B2" stroke-width="2" stroke-linecap="square"/>
<path d="M960.481 18.4445V4" stroke="#B2B2B2" stroke-width="2" stroke-linecap="square"/>
<path d="M1112.32 18.4445V4" stroke="#B2B2B2" stroke-width="2" stroke-linecap="square"/>
<path d="M964.477 18.5555V3" stroke="#B2B2B2" stroke-width="2" stroke-linecap="square"/>
<path d="M1116.31 18.5555V3" stroke="#B2B2B2" stroke-width="2" stroke-linecap="square"/>
<path d="M1120.31 17.3333V4" stroke="#B2B2B2" stroke-width="2" stroke-linecap="square"/>
<path d="M1124.31 16V6" stroke="#B2B2B2" stroke-width="2" stroke-linecap="square"/>
<path d="M1128.3 18.5555V3" stroke="#B2B2B2" stroke-width="2" stroke-linecap="square"/>
<path d="M1132.3 16V6" stroke="#B2B2B2" stroke-width="2" stroke-linecap="square"/>
<path d="M1136.29 14.7778V7" stroke="#B2B2B2" stroke-width="2" stroke-linecap="square"/>
<path d="M1140.29 17.3333V4" stroke="#B2B2B2" stroke-width="2" stroke-linecap="square"/>
<path d="M1144.29 16V6" stroke="#B2B2B2" stroke-width="2" stroke-linecap="square"/>
<path d="M1148.28 14.6667V8" stroke="#B2B2B2" stroke-width="2" stroke-linecap="square"/>
<path d="M1152.28 13.4445V9" stroke="#B2B2B2" stroke-width="2" stroke-linecap="square"/>
<path d="M1156.27 12.2222V10" stroke="#B2B2B2" stroke-width="2" stroke-linecap="square"/>
<path d="M1160.27 13.4445V9" stroke="#B2B2B2" stroke-width="2" stroke-linecap="square"/>
<path d="M1164.26 14.6667V8" stroke="#B2B2B2" stroke-width="2" stroke-linecap="square"/>
<path d="M1168.26 14.7778V7" stroke="#B2B2B2" stroke-width="2" stroke-linecap="square"/>
<path d="M1172.26 17.2222V5" stroke="#B2B2B2" stroke-width="2" stroke-linecap="square"/>
<path d="M1176.25 14.6667V8" stroke="#B2B2B2" stroke-width="2" stroke-linecap="square"/>
<path d="M1180.25 12.2222V10" stroke="#B2B2B2" stroke-width="2" stroke-linecap="square"/>
<path d="M1184.24 13.4445V9" stroke="#B2B2B2" stroke-width="2" stroke-linecap="square"/>
<path d="M1188.24 14.6667V8" stroke="#B2B2B2" stroke-width="2" stroke-linecap="square"/>
<path d="M1192.23 16V6" stroke="#B2B2B2" stroke-width="2" stroke-linecap="square"/>
<path d="M1196.23 18.4445V4" stroke="#B2B2B2" stroke-width="2" stroke-linecap="square"/>
<path d="M1200.23 17.2222V5" stroke="#B2B2B2" stroke-width="2" stroke-linecap="square"/>
<path d="M1212.22 17.2222V5" stroke="#B2B2B2" stroke-width="2" stroke-linecap="square"/>
<path d="M1204.22 14.7778V7" stroke="#B2B2B2" stroke-width="2" stroke-linecap="square"/>
<path d="M1216.21 14.7778V7" stroke="#B2B2B2" stroke-width="2" stroke-linecap="square"/>
<path d="M1208.22 14V9" stroke="#B2B2B2" stroke-width="2" stroke-linecap="square"/>
</svg>
